<mxfile host="app.diagrams.net" agent="Mozilla/5.0 (Windows NT 10.0; Win64; x64) AppleWebKit/537.36 (KHTML, like Gecko) Chrome/129.0.0.0 Safari/537.36" version="27.1.6">
  <diagram name="Pagina-1" id="54fLbxfwXZObV9pdjQnR">
    <mxGraphModel dx="4145" dy="3718" grid="1" gridSize="10" guides="1" tooltips="1" connect="1" arrows="1" fold="1" page="1" pageScale="1" pageWidth="827" pageHeight="1169" math="0" shadow="0">
      <root>
        <mxCell id="0" />
        <mxCell id="1" parent="0" />
        <mxCell id="T7HniVcJv9EPs_VLHabT-7" value="" style="rounded=0;whiteSpace=wrap;html=1;" parent="1" vertex="1">
          <mxGeometry x="810" y="-1290" width="1400" height="4200" as="geometry" />
        </mxCell>
        <mxCell id="aWdZE8WK8su21jjzheNT-11" value="FileSystem" style="swimlane;fontStyle=1;align=center;verticalAlign=top;childLayout=stackLayout;horizontal=1;startSize=26;horizontalStack=0;resizeParent=1;resizeParentMax=0;resizeLast=0;collapsible=1;marginBottom=0;whiteSpace=wrap;html=1;" parent="1" vertex="1">
          <mxGeometry x="1676" y="880" width="390" height="270" as="geometry" />
        </mxCell>
        <mxCell id="aWdZE8WK8su21jjzheNT-12" value="&lt;div&gt;- fileSystemUrl: String&lt;/div&gt;&lt;div&gt;- uploadsPath: String&lt;/div&gt;&lt;div&gt;- utenteFolderPlaceholder: String&lt;/div&gt;&lt;div&gt;- aziendaFolderPlaceholder: String&lt;/div&gt;&lt;div&gt;- validFileExtensions: List&amp;lt;String&amp;gt;&lt;/div&gt;&lt;div&gt;&lt;span style=&quot;background-color: transparent; color: light-dark(rgb(0, 0, 0), rgb(255, 255, 255));&quot;&gt;- validImageExtensions: List&amp;lt;String&amp;gt;&lt;/span&gt;&lt;/div&gt;" style="text;strokeColor=none;fillColor=none;align=left;verticalAlign=top;spacingLeft=4;spacingRight=4;overflow=hidden;rotatable=0;points=[[0,0.5],[1,0.5]];portConstraint=eastwest;whiteSpace=wrap;html=1;" parent="aWdZE8WK8su21jjzheNT-11" vertex="1">
          <mxGeometry y="26" width="390" height="104" as="geometry" />
        </mxCell>
        <mxCell id="aWdZE8WK8su21jjzheNT-13" value="" style="line;strokeWidth=1;fillColor=none;align=left;verticalAlign=middle;spacingTop=-1;spacingLeft=3;spacingRight=3;rotatable=0;labelPosition=right;points=[];portConstraint=eastwest;strokeColor=inherit;" parent="aWdZE8WK8su21jjzheNT-11" vertex="1">
          <mxGeometry y="130" width="390" height="8" as="geometry" />
        </mxCell>
        <mxCell id="aWdZE8WK8su21jjzheNT-14" value="&lt;div&gt;&lt;div&gt;+ getFileSystemUrl(): String&lt;/div&gt;&lt;div&gt;+ getUploadsPath(): String&lt;/div&gt;&lt;div&gt;+ getUtenteFolderPlaceholder(): String&lt;/div&gt;&lt;div&gt;+ getAziendaFolderPlaceholder(): String&lt;/div&gt;&lt;div&gt;+ getValidFileExtensions():&amp;nbsp;&lt;span style=&quot;background-color: transparent; color: light-dark(rgb(0, 0, 0), rgb(255, 255, 255));&quot;&gt;List&amp;lt;String&amp;gt;&lt;/span&gt;&lt;/div&gt;&lt;div&gt;+ getValidImageExtensions():&amp;nbsp;&lt;span style=&quot;background-color: transparent; color: light-dark(rgb(0, 0, 0), rgb(255, 255, 255));&quot;&gt;List&amp;lt;String&amp;gt;&lt;/span&gt;&lt;/div&gt;&lt;div&gt;+ isImageExtensionValid(ext: string): bool&lt;/div&gt;&lt;div&gt;+ isFileExtensionValid(ext: string): bool&lt;/div&gt;&lt;/div&gt;" style="text;strokeColor=none;fillColor=none;align=left;verticalAlign=top;spacingLeft=4;spacingRight=4;overflow=hidden;rotatable=0;points=[[0,0.5],[1,0.5]];portConstraint=eastwest;whiteSpace=wrap;html=1;" parent="aWdZE8WK8su21jjzheNT-11" vertex="1">
          <mxGeometry y="138" width="390" height="132" as="geometry" />
        </mxCell>
        <mxCell id="aWdZE8WK8su21jjzheNT-15" value="StorageUtenti" style="swimlane;fontStyle=1;align=center;verticalAlign=top;childLayout=stackLayout;horizontal=1;startSize=26;horizontalStack=0;resizeParent=1;resizeParentMax=0;resizeLast=0;collapsible=1;marginBottom=0;whiteSpace=wrap;html=1;" parent="1" vertex="1">
          <mxGeometry x="1015" y="840" width="280" height="140" as="geometry" />
        </mxCell>
        <mxCell id="aWdZE8WK8su21jjzheNT-16" value="" style="line;strokeWidth=1;fillColor=none;align=left;verticalAlign=middle;spacingTop=-1;spacingLeft=3;spacingRight=3;rotatable=0;labelPosition=right;points=[];portConstraint=eastwest;strokeColor=inherit;" parent="aWdZE8WK8su21jjzheNT-15" vertex="1">
          <mxGeometry y="26" width="280" height="24" as="geometry" />
        </mxCell>
        <mxCell id="aWdZE8WK8su21jjzheNT-17" value="+ createUtenteFolder(idUtente: int): void&lt;div&gt;+ uploadUtenteFile(idUtente: int, file: HashMap):int&lt;/div&gt;" style="text;strokeColor=none;fillColor=none;align=left;verticalAlign=top;spacingLeft=4;spacingRight=4;overflow=hidden;rotatable=0;points=[[0,0.5],[1,0.5]];portConstraint=eastwest;whiteSpace=wrap;html=1;" parent="aWdZE8WK8su21jjzheNT-15" vertex="1">
          <mxGeometry y="50" width="280" height="90" as="geometry" />
        </mxCell>
        <mxCell id="aWdZE8WK8su21jjzheNT-18" value="StorageAziende" style="swimlane;fontStyle=1;align=center;verticalAlign=top;childLayout=stackLayout;horizontal=1;startSize=26;horizontalStack=0;resizeParent=1;resizeParentMax=0;resizeLast=0;collapsible=1;marginBottom=0;whiteSpace=wrap;html=1;" parent="1" vertex="1">
          <mxGeometry x="1005" y="1090" width="300" height="100" as="geometry" />
        </mxCell>
        <mxCell id="aWdZE8WK8su21jjzheNT-19" value="" style="line;strokeWidth=1;fillColor=none;align=left;verticalAlign=middle;spacingTop=-1;spacingLeft=3;spacingRight=3;rotatable=0;labelPosition=right;points=[];portConstraint=eastwest;strokeColor=inherit;" parent="aWdZE8WK8su21jjzheNT-18" vertex="1">
          <mxGeometry y="26" width="300" height="24" as="geometry" />
        </mxCell>
        <mxCell id="aWdZE8WK8su21jjzheNT-20" value="+ createAziendaFolder(idAzienda: int): void&lt;div&gt;+ uploadAziendaFile(idAzienda: int, file: HashMap):int&lt;/div&gt;" style="text;strokeColor=none;fillColor=none;align=left;verticalAlign=top;spacingLeft=4;spacingRight=4;overflow=hidden;rotatable=0;points=[[0,0.5],[1,0.5]];portConstraint=eastwest;whiteSpace=wrap;html=1;" parent="aWdZE8WK8su21jjzheNT-18" vertex="1">
          <mxGeometry y="50" width="300" height="50" as="geometry" />
        </mxCell>
        <mxCell id="aWdZE8WK8su21jjzheNT-23" value="Extends" style="endArrow=block;endSize=16;endFill=0;html=1;rounded=0;exitX=0.988;exitY=0.053;exitDx=0;exitDy=0;entryX=0;entryY=0.5;entryDx=0;entryDy=0;exitPerimeter=0;" parent="1" source="aWdZE8WK8su21jjzheNT-17" target="aWdZE8WK8su21jjzheNT-12" edge="1">
          <mxGeometry width="160" relative="1" as="geometry">
            <mxPoint x="2066" y="940" as="sourcePoint" />
            <mxPoint x="2226" y="940" as="targetPoint" />
          </mxGeometry>
        </mxCell>
        <mxCell id="aWdZE8WK8su21jjzheNT-24" value="Extends" style="endArrow=block;endSize=16;endFill=0;html=1;rounded=0;exitX=1.022;exitY=0.153;exitDx=0;exitDy=0;entryX=-0.007;entryY=0.833;entryDx=0;entryDy=0;entryPerimeter=0;exitPerimeter=0;" parent="1" source="aWdZE8WK8su21jjzheNT-20" target="aWdZE8WK8su21jjzheNT-12" edge="1">
          <mxGeometry width="160" relative="1" as="geometry">
            <mxPoint x="1556" y="1030" as="sourcePoint" />
            <mxPoint x="1716" y="1030" as="targetPoint" />
          </mxGeometry>
        </mxCell>
        <mxCell id="aWdZE8WK8su21jjzheNT-26" value="Aziende" style="swimlane;fontStyle=1;align=center;verticalAlign=top;childLayout=stackLayout;horizontal=1;startSize=26;horizontalStack=0;resizeParent=1;resizeParentMax=0;resizeLast=0;collapsible=1;marginBottom=0;whiteSpace=wrap;html=1;" parent="1" vertex="1">
          <mxGeometry x="995" y="1310" width="450" height="600" as="geometry" />
        </mxCell>
        <mxCell id="aWdZE8WK8su21jjzheNT-27" value="&lt;div&gt;- aziendaId: String&lt;/div&gt;&lt;div&gt;- nome:&amp;nbsp;&lt;span style=&quot;background-color: transparent; color: light-dark(rgb(0, 0, 0), rgb(255, 255, 255));&quot;&gt;String&lt;/span&gt;&lt;/div&gt;&lt;div&gt;- descrizione:&amp;nbsp;&lt;span style=&quot;background-color: transparent; color: light-dark(rgb(0, 0, 0), rgb(255, 255, 255));&quot;&gt;String&lt;/span&gt;&lt;/div&gt;&lt;div&gt;- sitoWeb:&amp;nbsp;&lt;span style=&quot;background-color: transparent; color: light-dark(rgb(0, 0, 0), rgb(255, 255, 255));&quot;&gt;String&lt;/span&gt;&lt;/div&gt;&lt;div&gt;- emailContatto:&amp;nbsp;&lt;span style=&quot;background-color: transparent; color: light-dark(rgb(0, 0, 0), rgb(255, 255, 255));&quot;&gt;String&lt;/span&gt;&lt;/div&gt;&lt;div&gt;- telefonoContatto:&amp;nbsp;&lt;span style=&quot;background-color: transparent; color: light-dark(rgb(0, 0, 0), rgb(255, 255, 255));&quot;&gt;String&lt;/span&gt;&lt;/div&gt;&lt;div&gt;- partitaIva:&amp;nbsp;&lt;span style=&quot;background-color: transparent; color: light-dark(rgb(0, 0, 0), rgb(255, 255, 255));&quot;&gt;String&lt;/span&gt;&lt;/div&gt;&lt;div&gt;- ragioneSociale:&amp;nbsp;&lt;span style=&quot;background-color: transparent; color: light-dark(rgb(0, 0, 0), rgb(255, 255, 255));&quot;&gt;String&lt;/span&gt;&lt;/div&gt;&lt;div&gt;- logo:&amp;nbsp;&lt;span style=&quot;background-color: transparent; color: light-dark(rgb(0, 0, 0), rgb(255, 255, 255));&quot;&gt;String&lt;/span&gt;&lt;/div&gt;&lt;div&gt;- password:&amp;nbsp;&lt;span style=&quot;background-color: transparent; color: light-dark(rgb(0, 0, 0), rgb(255, 255, 255));&quot;&gt;String&lt;/span&gt;&lt;/div&gt;&lt;div&gt;- email:&amp;nbsp;&lt;span style=&quot;background-color: transparent; color: light-dark(rgb(0, 0, 0), rgb(255, 255, 255));&quot;&gt;String&lt;/span&gt;&lt;/div&gt;&lt;div&gt;- sediAzienda:&amp;nbsp;&lt;span style=&quot;background-color: transparent; color: light-dark(rgb(0, 0, 0), rgb(255, 255, 255));&quot;&gt;array&lt;/span&gt;&lt;/div&gt;" style="text;strokeColor=none;fillColor=none;align=left;verticalAlign=top;spacingLeft=4;spacingRight=4;overflow=hidden;rotatable=0;points=[[0,0.5],[1,0.5]];portConstraint=eastwest;whiteSpace=wrap;html=1;" parent="aWdZE8WK8su21jjzheNT-26" vertex="1">
          <mxGeometry y="26" width="450" height="184" as="geometry" />
        </mxCell>
        <mxCell id="aWdZE8WK8su21jjzheNT-28" value="" style="line;strokeWidth=1;fillColor=none;align=left;verticalAlign=middle;spacingTop=-1;spacingLeft=3;spacingRight=3;rotatable=0;labelPosition=right;points=[];portConstraint=eastwest;strokeColor=inherit;" parent="aWdZE8WK8su21jjzheNT-26" vertex="1">
          <mxGeometry y="210" width="450" height="30" as="geometry" />
        </mxCell>
        <mxCell id="aWdZE8WK8su21jjzheNT-29" value="&lt;div&gt;+ getAziendaId():&amp;nbsp;&lt;span style=&quot;background-color: transparent; color: light-dark(rgb(0, 0, 0), rgb(255, 255, 255));&quot;&gt;String&lt;/span&gt;&lt;/div&gt;&lt;div&gt;+ getNome():&amp;nbsp;&lt;span style=&quot;background-color: transparent; color: light-dark(rgb(0, 0, 0), rgb(255, 255, 255));&quot;&gt;String&lt;/span&gt;&lt;/div&gt;&lt;div&gt;+ getDescrizione():&amp;nbsp;&lt;span style=&quot;background-color: transparent; color: light-dark(rgb(0, 0, 0), rgb(255, 255, 255));&quot;&gt;String&lt;/span&gt;&lt;/div&gt;&lt;div&gt;+ getSitoWeb():&amp;nbsp;&lt;span style=&quot;background-color: transparent; color: light-dark(rgb(0, 0, 0), rgb(255, 255, 255));&quot;&gt;String&lt;/span&gt;&lt;/div&gt;&lt;div&gt;+ getEmailContatto():&amp;nbsp;&lt;span style=&quot;background-color: transparent; color: light-dark(rgb(0, 0, 0), rgb(255, 255, 255));&quot;&gt;String&lt;/span&gt;&lt;/div&gt;&lt;div&gt;+ getTelefonoContatto():&amp;nbsp;&lt;span style=&quot;background-color: transparent; color: light-dark(rgb(0, 0, 0), rgb(255, 255, 255));&quot;&gt;String&lt;/span&gt;&lt;/div&gt;&lt;div&gt;+ getPartitaIva(): mixed&lt;/div&gt;&lt;div&gt;+ getRagioneSociale():&amp;nbsp;&lt;span style=&quot;background-color: transparent; color: light-dark(rgb(0, 0, 0), rgb(255, 255, 255));&quot;&gt;String&lt;/span&gt;&lt;/div&gt;&lt;div&gt;+ getLogo():&amp;nbsp;&lt;span style=&quot;background-color: transparent; color: light-dark(rgb(0, 0, 0), rgb(255, 255, 255));&quot;&gt;String&lt;/span&gt;&lt;/div&gt;&lt;div&gt;+ getPassword():&amp;nbsp;&lt;span style=&quot;background-color: transparent; color: light-dark(rgb(0, 0, 0), rgb(255, 255, 255));&quot;&gt;String&lt;/span&gt;&lt;/div&gt;&lt;div&gt;+ getEmail():&amp;nbsp;&lt;span style=&quot;background-color: transparent; color: light-dark(rgb(0, 0, 0), rgb(255, 255, 255));&quot;&gt;String&lt;/span&gt;&lt;/div&gt;&lt;div&gt;+ getSediAzienda(): array&lt;/div&gt;&lt;div&gt;&lt;br&gt;&lt;/div&gt;&lt;div&gt;+ addSedeAzienda(paese: string, regione: string, citta: string, indirizzo: string): int&lt;/div&gt;&lt;div&gt;+ addAzienda(nome: string, descrizione: string, sitoWeb: string, emailContatto: string, telefonoContatto: string, email: string, password: string): int&lt;/div&gt;&lt;div&gt;+ setAziendaLogo(fileName: string): int&lt;/div&gt;&lt;div&gt;+ setAziendaBanner(fileName: string): int&lt;/div&gt;&lt;div&gt;+ getAziendaByEmail(email: string): int&lt;/div&gt;&lt;div&gt;+ getAziendaById(id: int): int&lt;/div&gt;&lt;div&gt;+ fetchSediAzienda(): int&lt;/div&gt;&lt;div&gt;&lt;br&gt;&lt;/div&gt;&lt;div&gt;+ populateFromArray(data: array): void&lt;/div&gt;&lt;div&gt;+ toArray(): array&lt;/div&gt;&lt;div&gt;&lt;br&gt;&lt;/div&gt;" style="text;strokeColor=none;fillColor=none;align=left;verticalAlign=top;spacingLeft=4;spacingRight=4;overflow=hidden;rotatable=0;points=[[0,0.5],[1,0.5]];portConstraint=eastwest;whiteSpace=wrap;html=1;" parent="aWdZE8WK8su21jjzheNT-26" vertex="1">
          <mxGeometry y="240" width="450" height="360" as="geometry" />
        </mxCell>
        <mxCell id="aWdZE8WK8su21jjzheNT-30" value="Utenti" style="swimlane;fontStyle=1;align=center;verticalAlign=top;childLayout=stackLayout;horizontal=1;startSize=26;horizontalStack=0;resizeParent=1;resizeParentMax=0;resizeLast=0;collapsible=1;marginBottom=0;whiteSpace=wrap;html=1;" parent="1" vertex="1">
          <mxGeometry x="1010" y="-1140" width="770" height="690" as="geometry" />
        </mxCell>
        <mxCell id="aWdZE8WK8su21jjzheNT-31" value="&lt;div&gt;- utenteId: String&lt;/div&gt;&lt;div&gt;&amp;nbsp; - email: String&lt;/div&gt;&lt;div&gt;&amp;nbsp; - password: String&lt;/div&gt;&lt;div&gt;&amp;nbsp; - username: String&lt;/div&gt;&lt;div&gt;&amp;nbsp; - nome: String&lt;/div&gt;&lt;div&gt;&amp;nbsp; - cognome: String&lt;/div&gt;&lt;div&gt;&amp;nbsp; - descrizione: String&lt;/div&gt;&lt;div&gt;&amp;nbsp; - telefonoContatto: String&lt;/div&gt;&lt;div&gt;&amp;nbsp; - dataRegistrazione: String&lt;/div&gt;&lt;div&gt;&amp;nbsp; - immagineProfilo: String&lt;/div&gt;&lt;div&gt;&amp;nbsp; - candidature: List&amp;lt;Candidature&amp;gt;&lt;/div&gt;&lt;div&gt;&amp;nbsp; - competenze: List&amp;lt;Competenze&amp;gt;&lt;/div&gt;&lt;div&gt;&amp;nbsp; - documenti: List&amp;lt;DocumentiUtente&amp;gt;&lt;/div&gt;" style="text;strokeColor=none;fillColor=none;align=left;verticalAlign=top;spacingLeft=4;spacingRight=4;overflow=hidden;rotatable=0;points=[[0,0.5],[1,0.5]];portConstraint=eastwest;whiteSpace=wrap;html=1;" parent="aWdZE8WK8su21jjzheNT-30" vertex="1">
          <mxGeometry y="26" width="770" height="214" as="geometry" />
        </mxCell>
        <mxCell id="aWdZE8WK8su21jjzheNT-32" value="" style="line;strokeWidth=1;fillColor=none;align=left;verticalAlign=middle;spacingTop=-1;spacingLeft=3;spacingRight=3;rotatable=0;labelPosition=right;points=[];portConstraint=eastwest;strokeColor=inherit;" parent="aWdZE8WK8su21jjzheNT-30" vertex="1">
          <mxGeometry y="240" width="770" height="8" as="geometry" />
        </mxCell>
        <mxCell id="aWdZE8WK8su21jjzheNT-33" value="&lt;div&gt;+ getUtenteId(): int&lt;/div&gt;&lt;div&gt;+ getEmail(): string&lt;/div&gt;&lt;div&gt;+ getPassword(): string&lt;/div&gt;&lt;div&gt;+ setPassword(passwd: string): void&lt;/div&gt;&lt;div&gt;+ getUsername(): string&lt;/div&gt;&lt;div&gt;+ getNome(): string&lt;/div&gt;&lt;div&gt;+ getCognome(): string&lt;/div&gt;&lt;div&gt;+ getDescrizione(): string&lt;/div&gt;&lt;div&gt;+ getTelefonoContatto(): string&lt;/div&gt;&lt;div&gt;+ getDataRegistrazione(): string&lt;/div&gt;&lt;div&gt;+ getImmagineProfilo(): string&lt;/div&gt;&lt;div&gt;+ getCandidature(): array&lt;/div&gt;&lt;div&gt;+ getCompetenze(): array&lt;/div&gt;&lt;div&gt;+ getDocumenti(): array&lt;/div&gt;&lt;div&gt;+ populateFromArray(data: array): void&lt;/div&gt;&lt;div&gt;+ toArray(): array&lt;/div&gt;&lt;div&gt;+ addUtente(username: string, nome: string, cognome: string, descrizione: string, nTelefono: string, email: string, password: string): int&lt;/div&gt;&lt;div&gt;+ addDocumento(fileName: string): int&lt;/div&gt;&lt;div&gt;+ setUtenteProfileImage(fileName: string): int&lt;/div&gt;&lt;div&gt;+ getUtenteByEmail(email: string): int&lt;/div&gt;&lt;div&gt;+ getUtenteById(id: int): int&lt;/div&gt;&lt;div&gt;+ fetchCandidatureUtente(): int&lt;/div&gt;&lt;div&gt;+ fetchCompetenzeUtente(): int&lt;/div&gt;&lt;div&gt;+ fetchDocumentiUtente(): int&lt;/div&gt;&lt;div&gt;+ getCandidatureWithInfoByUtenteId(utenteId: int): array&lt;/div&gt;&lt;div&gt;+ getCandidaturaWithInfoById(candidaturaId: int):&amp;nbsp;&lt;span style=&quot;background-color: transparent; color: light-dark(rgb(0, 0, 0), rgb(255, 255, 255));&quot;&gt;array&lt;/span&gt;&lt;/div&gt;&lt;div&gt;+ updateUtente(): int&lt;/div&gt;&lt;div&gt;+ getOfferteAppuntateByUtenteId(utenteId: int): array&lt;/div&gt;&lt;div&gt;+ appuntaOfferta(utenteId: int, offertaId: int): bool&lt;/div&gt;&lt;div&gt;&lt;br&gt;&lt;/div&gt;" style="text;strokeColor=none;fillColor=none;align=left;verticalAlign=top;spacingLeft=4;spacingRight=4;overflow=hidden;rotatable=0;points=[[0,0.5],[1,0.5]];portConstraint=eastwest;whiteSpace=wrap;html=1;" parent="aWdZE8WK8su21jjzheNT-30" vertex="1">
          <mxGeometry y="248" width="770" height="442" as="geometry" />
        </mxCell>
        <mxCell id="aWdZE8WK8su21jjzheNT-34" value="Offerte" style="swimlane;fontStyle=1;align=center;verticalAlign=top;childLayout=stackLayout;horizontal=1;startSize=26;horizontalStack=0;resizeParent=1;resizeParentMax=0;resizeLast=0;collapsible=1;marginBottom=0;whiteSpace=wrap;html=1;" parent="1" vertex="1">
          <mxGeometry x="990" y="2020" width="440" height="460" as="geometry" />
        </mxCell>
        <mxCell id="aWdZE8WK8su21jjzheNT-35" value="&lt;div&gt;&lt;div&gt;- offertaId: int&lt;/div&gt;&lt;div&gt;- aziendaId: int&lt;/div&gt;&lt;div&gt;- descrizione: string&amp;nbsp;&lt;/div&gt;&lt;div&gt;- titolo: string&lt;/div&gt;&lt;div&gt;- tipoContrattoId: int&amp;nbsp;&lt;/div&gt;&lt;div&gt;- retribuzione: String&lt;/div&gt;&lt;div&gt;- dataPubblicazione: string&lt;/div&gt;&lt;div&gt;- sedeLavoroId: int&lt;/div&gt;&lt;div&gt;- dataScadenza: string&amp;nbsp;&lt;/div&gt;&lt;/div&gt;" style="text;strokeColor=none;fillColor=none;align=left;verticalAlign=top;spacingLeft=4;spacingRight=4;overflow=hidden;rotatable=0;points=[[0,0.5],[1,0.5]];portConstraint=eastwest;whiteSpace=wrap;html=1;" parent="aWdZE8WK8su21jjzheNT-34" vertex="1">
          <mxGeometry y="26" width="440" height="154" as="geometry" />
        </mxCell>
        <mxCell id="aWdZE8WK8su21jjzheNT-36" value="" style="line;strokeWidth=1;fillColor=none;align=left;verticalAlign=middle;spacingTop=-1;spacingLeft=3;spacingRight=3;rotatable=0;labelPosition=right;points=[];portConstraint=eastwest;strokeColor=inherit;" parent="aWdZE8WK8su21jjzheNT-34" vertex="1">
          <mxGeometry y="180" width="440" height="8" as="geometry" />
        </mxCell>
        <mxCell id="aWdZE8WK8su21jjzheNT-37" value="&lt;div&gt;&lt;div&gt;+ getOffertaId(): int&lt;/div&gt;&lt;div&gt;+ getAziendaId(): int&lt;/div&gt;&lt;div&gt;+ getDescrizione(): string&lt;/div&gt;&lt;div&gt;+ getTitolo(): string&lt;/div&gt;&lt;div&gt;+ getTipoContrattoId(): int&lt;/div&gt;&lt;div&gt;+ getRetribuzione(): String&lt;/div&gt;&lt;div&gt;+ getDataPubblicazione(): string&amp;nbsp;&lt;/div&gt;&lt;div&gt;+ getSedeLavoroId(): int&lt;/div&gt;&lt;div&gt;+ getDataScadenza(): string&lt;/div&gt;&lt;div&gt;+ populateFromArray(data: array): void&lt;/div&gt;&lt;div&gt;+ toArray(): array&lt;/div&gt;&lt;div&gt;+ addOfferta(aziendaId: int, titolo: string, descrizione: string, requisiti: string, sedeId: int, categoriaId: int): int&lt;/div&gt;&lt;div&gt;+ deleteOfferta(offertaId: int): int&lt;/div&gt;&lt;div&gt;+ getOffertaById(id: int): int&lt;/div&gt;&lt;div&gt;+ getUltimeOfferteConRequisiti(): array&lt;/div&gt;&lt;div&gt;+ getOffertaConRequisitiById(offertaId: int):array&lt;/div&gt;&lt;/div&gt;" style="text;strokeColor=none;fillColor=none;align=left;verticalAlign=top;spacingLeft=4;spacingRight=4;overflow=hidden;rotatable=0;points=[[0,0.5],[1,0.5]];portConstraint=eastwest;whiteSpace=wrap;html=1;" parent="aWdZE8WK8su21jjzheNT-34" vertex="1">
          <mxGeometry y="188" width="440" height="272" as="geometry" />
        </mxCell>
        <mxCell id="aWdZE8WK8su21jjzheNT-42" value="Candidature" style="swimlane;fontStyle=1;align=center;verticalAlign=top;childLayout=stackLayout;horizontal=1;startSize=26;horizontalStack=0;resizeParent=1;resizeParentMax=0;resizeLast=0;collapsible=1;marginBottom=0;whiteSpace=wrap;html=1;" parent="1" vertex="1">
          <mxGeometry x="1020" y="-60" width="400" height="400" as="geometry" />
        </mxCell>
        <mxCell id="aWdZE8WK8su21jjzheNT-43" value="&lt;div&gt;&lt;div&gt;- candidaturaId: int&lt;/div&gt;&lt;div&gt;- offertaId: int&lt;/div&gt;&lt;div&gt;- utenteId: int&lt;/div&gt;&lt;div&gt;- note: string&lt;/div&gt;&lt;div&gt;- dataCandidatura: string&lt;/div&gt;&lt;div&gt;- statoId: int&lt;/div&gt;&lt;div&gt;- motivazioneRisultato: string&lt;/div&gt;&lt;div&gt;- cvDocumentoId: int&amp;nbsp;&amp;nbsp;&lt;/div&gt;&lt;/div&gt;" style="text;strokeColor=none;fillColor=none;align=left;verticalAlign=top;spacingLeft=4;spacingRight=4;overflow=hidden;rotatable=0;points=[[0,0.5],[1,0.5]];portConstraint=eastwest;whiteSpace=wrap;html=1;" parent="aWdZE8WK8su21jjzheNT-42" vertex="1">
          <mxGeometry y="26" width="400" height="134" as="geometry" />
        </mxCell>
        <mxCell id="aWdZE8WK8su21jjzheNT-44" value="" style="line;strokeWidth=1;fillColor=none;align=left;verticalAlign=middle;spacingTop=-1;spacingLeft=3;spacingRight=3;rotatable=0;labelPosition=right;points=[];portConstraint=eastwest;strokeColor=inherit;" parent="aWdZE8WK8su21jjzheNT-42" vertex="1">
          <mxGeometry y="160" width="400" height="8" as="geometry" />
        </mxCell>
        <mxCell id="aWdZE8WK8su21jjzheNT-45" value="&lt;div&gt;&lt;div&gt;+ getCandidaturaId(): int&lt;/div&gt;&lt;div&gt;+ getCvDocumentoId(): int&lt;/div&gt;&lt;div&gt;+ getOffertaId(): int&lt;/div&gt;&lt;div&gt;+ getUtenteId(): int&lt;/div&gt;&lt;div&gt;+ getNote(): string&lt;/div&gt;&lt;div&gt;+ getDataCandidatura(): string&lt;/div&gt;&lt;div&gt;+ getStatoId(): int&lt;/div&gt;&lt;div&gt;+ getMotivazioneRisultato(): string&lt;/div&gt;&lt;div&gt;+ populateFromArray(data: array): void&lt;/div&gt;&lt;div&gt;+ toArray(): array&lt;/div&gt;&lt;div&gt;+ getCandidaturaById(id: int): int&lt;/div&gt;&lt;div&gt;+ addCandidatura(offertaId: int, cvId: int, utenteId: int, note: String): int&lt;/div&gt;&lt;div&gt;+ deleteCandidatura(): int&lt;/div&gt;&lt;div&gt;+ setStatoCandidatura(statoId: int, motivazione:string): int&amp;nbsp; &amp;nbsp;&lt;/div&gt;&lt;/div&gt;" style="text;strokeColor=none;fillColor=none;align=left;verticalAlign=top;spacingLeft=4;spacingRight=4;overflow=hidden;rotatable=0;points=[[0,0.5],[1,0.5]];portConstraint=eastwest;whiteSpace=wrap;html=1;" parent="aWdZE8WK8su21jjzheNT-42" vertex="1">
          <mxGeometry y="168" width="400" height="232" as="geometry" />
        </mxCell>
        <mxCell id="aWdZE8WK8su21jjzheNT-54" value="DocumentiUtente" style="swimlane;fontStyle=1;align=center;verticalAlign=top;childLayout=stackLayout;horizontal=1;startSize=26;horizontalStack=0;resizeParent=1;resizeParentMax=0;resizeLast=0;collapsible=1;marginBottom=0;whiteSpace=wrap;html=1;" parent="1" vertex="1">
          <mxGeometry x="1020" y="-310" width="350" height="180" as="geometry" />
        </mxCell>
        <mxCell id="aWdZE8WK8su21jjzheNT-55" value="&lt;div&gt;- documentoId: String&lt;/div&gt;&lt;div&gt;- utenteId: String&lt;/div&gt;&lt;div&gt;- documento: String&lt;/div&gt;&lt;div&gt;&lt;br&gt;&lt;/div&gt;" style="text;strokeColor=none;fillColor=none;align=left;verticalAlign=top;spacingLeft=4;spacingRight=4;overflow=hidden;rotatable=0;points=[[0,0.5],[1,0.5]];portConstraint=eastwest;whiteSpace=wrap;html=1;" parent="aWdZE8WK8su21jjzheNT-54" vertex="1">
          <mxGeometry y="26" width="350" height="64" as="geometry" />
        </mxCell>
        <mxCell id="aWdZE8WK8su21jjzheNT-56" value="" style="line;strokeWidth=1;fillColor=none;align=left;verticalAlign=middle;spacingTop=-1;spacingLeft=3;spacingRight=3;rotatable=0;labelPosition=right;points=[];portConstraint=eastwest;strokeColor=inherit;" parent="aWdZE8WK8su21jjzheNT-54" vertex="1">
          <mxGeometry y="90" width="350" height="8" as="geometry" />
        </mxCell>
        <mxCell id="aWdZE8WK8su21jjzheNT-57" value="&lt;div&gt;+ getDocumentoId(): String&lt;/div&gt;&lt;div&gt;+ getUtenteId(): String&lt;/div&gt;&lt;div&gt;+ getDocumento(): String&lt;/div&gt;&lt;div&gt;+ addDocumento(idUtente: String, nomeDocumento: String): int&lt;/div&gt;&lt;div&gt;&lt;br&gt;&lt;/div&gt;" style="text;strokeColor=none;fillColor=none;align=left;verticalAlign=top;spacingLeft=4;spacingRight=4;overflow=hidden;rotatable=0;points=[[0,0.5],[1,0.5]];portConstraint=eastwest;whiteSpace=wrap;html=1;" parent="aWdZE8WK8su21jjzheNT-54" vertex="1">
          <mxGeometry y="98" width="350" height="82" as="geometry" />
        </mxCell>
        <mxCell id="aWdZE8WK8su21jjzheNT-58" value="CompetenzeUtente" style="swimlane;fontStyle=1;align=center;verticalAlign=top;childLayout=stackLayout;horizontal=1;startSize=26;horizontalStack=0;resizeParent=1;resizeParentMax=0;resizeLast=0;collapsible=1;marginBottom=0;whiteSpace=wrap;html=1;" parent="1" vertex="1">
          <mxGeometry x="1020" y="400" width="370" height="350" as="geometry" />
        </mxCell>
        <mxCell id="aWdZE8WK8su21jjzheNT-59" value="&lt;div&gt;- candidatura_id: int&lt;/div&gt;&lt;div&gt;- offerta_id: int&lt;/div&gt;&lt;div&gt;- utente_id: int&lt;/div&gt;&lt;div&gt;- note: String&lt;/div&gt;&lt;div&gt;- data_candidatura: String&lt;/div&gt;&lt;div&gt;- stato_id: int&lt;/div&gt;&lt;div&gt;- motivazione_risultato: String&lt;/div&gt;" style="text;strokeColor=none;fillColor=none;align=left;verticalAlign=top;spacingLeft=4;spacingRight=4;overflow=hidden;rotatable=0;points=[[0,0.5],[1,0.5]];portConstraint=eastwest;whiteSpace=wrap;html=1;" parent="aWdZE8WK8su21jjzheNT-58" vertex="1">
          <mxGeometry y="26" width="370" height="124" as="geometry" />
        </mxCell>
        <mxCell id="aWdZE8WK8su21jjzheNT-60" value="" style="line;strokeWidth=1;fillColor=none;align=left;verticalAlign=middle;spacingTop=-1;spacingLeft=3;spacingRight=3;rotatable=0;labelPosition=right;points=[];portConstraint=eastwest;strokeColor=inherit;" parent="aWdZE8WK8su21jjzheNT-58" vertex="1">
          <mxGeometry y="150" width="370" height="8" as="geometry" />
        </mxCell>
        <mxCell id="aWdZE8WK8su21jjzheNT-61" value="&lt;div&gt;+ getCandidaturaId(): int&lt;/div&gt;&lt;div&gt;+ getOffertaId(): int&lt;/div&gt;&lt;div&gt;+ getUtenteId(): int&lt;/div&gt;&lt;div&gt;+ getNote(): string&lt;/div&gt;&lt;div&gt;+ getDataCandidatura(): string&lt;/div&gt;&lt;div&gt;+ getStatoId(): int&lt;/div&gt;&lt;div&gt;+ getMotivazioneRisultato(): string&lt;/div&gt;&lt;div&gt;+ toArray(): array&lt;/div&gt;&lt;div&gt;+ populateFromArray(data: array): void&lt;/div&gt;&lt;div&gt;+ getCompetenzaById(id: int): int&lt;/div&gt;&lt;div&gt;+ aggiungiCompetenzaUtente(utenteId: int, competenzaId: int): int&lt;/div&gt;" style="text;strokeColor=none;fillColor=none;align=left;verticalAlign=top;spacingLeft=4;spacingRight=4;overflow=hidden;rotatable=0;points=[[0,0.5],[1,0.5]];portConstraint=eastwest;whiteSpace=wrap;html=1;" parent="aWdZE8WK8su21jjzheNT-58" vertex="1">
          <mxGeometry y="158" width="370" height="192" as="geometry" />
        </mxCell>
        <mxCell id="aWdZE8WK8su21jjzheNT-62" value="SediAziende" style="swimlane;fontStyle=1;align=center;verticalAlign=top;childLayout=stackLayout;horizontal=1;startSize=26;horizontalStack=0;resizeParent=1;resizeParentMax=0;resizeLast=0;collapsible=1;marginBottom=0;whiteSpace=wrap;html=1;" parent="1" vertex="1">
          <mxGeometry x="990" y="2560" width="230" height="310" as="geometry" />
        </mxCell>
        <mxCell id="aWdZE8WK8su21jjzheNT-63" value="&lt;div&gt;&lt;b&gt;- sedeId: String&lt;/b&gt;&lt;/div&gt;&lt;div&gt;&lt;b&gt;- aziendaId: String&lt;/b&gt;&lt;/div&gt;&lt;div&gt;&lt;b&gt;- paese: String&lt;/b&gt;&lt;/div&gt;&lt;div&gt;&lt;b&gt;- regione: String&lt;/b&gt;&lt;/div&gt;&lt;div&gt;&lt;b&gt;- citta: String&lt;/b&gt;&lt;/div&gt;&lt;div&gt;&lt;b&gt;- indirizzo: String&lt;/b&gt;&lt;/div&gt;&lt;div&gt;&lt;br&gt;&lt;/div&gt;" style="text;strokeColor=none;fillColor=none;align=left;verticalAlign=top;spacingLeft=4;spacingRight=4;overflow=hidden;rotatable=0;points=[[0,0.5],[1,0.5]];portConstraint=eastwest;whiteSpace=wrap;html=1;" parent="aWdZE8WK8su21jjzheNT-62" vertex="1">
          <mxGeometry y="26" width="230" height="114" as="geometry" />
        </mxCell>
        <mxCell id="aWdZE8WK8su21jjzheNT-64" value="" style="line;strokeWidth=1;fillColor=none;align=left;verticalAlign=middle;spacingTop=-1;spacingLeft=3;spacingRight=3;rotatable=0;labelPosition=right;points=[];portConstraint=eastwest;strokeColor=inherit;" parent="aWdZE8WK8su21jjzheNT-62" vertex="1">
          <mxGeometry y="140" width="230" height="8" as="geometry" />
        </mxCell>
        <mxCell id="aWdZE8WK8su21jjzheNT-65" value="&lt;div&gt;+ getSedeId(): String&lt;/div&gt;&lt;div&gt;+ getAziendaId(): String&lt;/div&gt;&lt;div&gt;+ getPaese(): String&lt;/div&gt;&lt;div&gt;+ getRegione(): String&lt;/div&gt;&lt;div&gt;+ getCitta(): String&lt;/div&gt;&lt;div&gt;+ getIndirizzo(): String&lt;/div&gt;&lt;div&gt;&lt;br&gt;&lt;/div&gt;&lt;div&gt;+ populateFromArray(data: array): void&lt;/div&gt;&lt;div&gt;+ toArray(): array&lt;/div&gt;&lt;div&gt;&lt;br&gt;&lt;/div&gt;" style="text;strokeColor=none;fillColor=none;align=left;verticalAlign=top;spacingLeft=4;spacingRight=4;overflow=hidden;rotatable=0;points=[[0,0.5],[1,0.5]];portConstraint=eastwest;whiteSpace=wrap;html=1;" parent="aWdZE8WK8su21jjzheNT-62" vertex="1">
          <mxGeometry y="148" width="230" height="162" as="geometry" />
        </mxCell>
        <mxCell id="T7HniVcJv9EPs_VLHabT-2" value="" style="endArrow=diamondThin;endFill=0;endSize=24;html=1;rounded=0;entryX=0.707;entryY=0.995;entryDx=0;entryDy=0;entryPerimeter=0;exitX=1;exitY=0.5;exitDx=0;exitDy=0;" parent="1" source="aWdZE8WK8su21jjzheNT-55" target="aWdZE8WK8su21jjzheNT-33" edge="1">
          <mxGeometry width="160" relative="1" as="geometry">
            <mxPoint x="1460" y="-100" as="sourcePoint" />
            <mxPoint x="1620" y="-100" as="targetPoint" />
            <Array as="points">
              <mxPoint x="1554" y="-250" />
            </Array>
          </mxGeometry>
        </mxCell>
        <mxCell id="T7HniVcJv9EPs_VLHabT-3" value="" style="endArrow=diamondThin;endFill=0;endSize=24;html=1;rounded=0;exitX=1;exitY=0.5;exitDx=0;exitDy=0;entryX=0.772;entryY=0.998;entryDx=0;entryDy=0;entryPerimeter=0;" parent="1" source="aWdZE8WK8su21jjzheNT-43" target="aWdZE8WK8su21jjzheNT-33" edge="1">
          <mxGeometry width="160" relative="1" as="geometry">
            <mxPoint x="1480" y="60" as="sourcePoint" />
            <mxPoint x="1640" y="60" as="targetPoint" />
            <Array as="points">
              <mxPoint x="1600" y="33" />
            </Array>
          </mxGeometry>
        </mxCell>
        <mxCell id="T7HniVcJv9EPs_VLHabT-4" value="" style="endArrow=diamondThin;endFill=0;endSize=24;html=1;rounded=0;exitX=1;exitY=0.5;exitDx=0;exitDy=0;entryX=0.837;entryY=0.998;entryDx=0;entryDy=0;entryPerimeter=0;" parent="1" source="aWdZE8WK8su21jjzheNT-59" target="aWdZE8WK8su21jjzheNT-33" edge="1">
          <mxGeometry width="160" relative="1" as="geometry">
            <mxPoint x="1430" y="520" as="sourcePoint" />
            <mxPoint x="1590" y="520" as="targetPoint" />
            <Array as="points">
              <mxPoint x="1650" y="488" />
            </Array>
          </mxGeometry>
        </mxCell>
        <mxCell id="T7HniVcJv9EPs_VLHabT-5" value="" style="endArrow=diamondThin;endFill=0;endSize=24;html=1;rounded=0;exitX=1;exitY=0.5;exitDx=0;exitDy=0;entryX=1.016;entryY=0.661;entryDx=0;entryDy=0;entryPerimeter=0;" parent="1" source="aWdZE8WK8su21jjzheNT-35" target="aWdZE8WK8su21jjzheNT-27" edge="1">
          <mxGeometry width="160" relative="1" as="geometry">
            <mxPoint x="1630" y="2150" as="sourcePoint" />
            <mxPoint x="1790" y="2150" as="targetPoint" />
            <Array as="points">
              <mxPoint x="1590" y="2123" />
              <mxPoint x="1590" y="1750" />
              <mxPoint x="1590" y="1458" />
            </Array>
          </mxGeometry>
        </mxCell>
        <mxCell id="T7HniVcJv9EPs_VLHabT-6" value="" style="endArrow=diamondThin;endFill=0;endSize=24;html=1;rounded=0;exitX=1;exitY=0.5;exitDx=0;exitDy=0;entryX=1.024;entryY=0.371;entryDx=0;entryDy=0;entryPerimeter=0;" parent="1" source="aWdZE8WK8su21jjzheNT-63" target="aWdZE8WK8su21jjzheNT-27" edge="1">
          <mxGeometry width="160" relative="1" as="geometry">
            <mxPoint x="1310" y="2650" as="sourcePoint" />
            <mxPoint x="1470" y="2650" as="targetPoint" />
            <Array as="points">
              <mxPoint x="1660" y="2630" />
              <mxPoint x="1660" y="1404" />
            </Array>
          </mxGeometry>
        </mxCell>
        <mxCell id="T7HniVcJv9EPs_VLHabT-8" value="&lt;font style=&quot;font-size: 43px;&quot;&gt;model&lt;/font&gt;" style="text;html=1;align=center;verticalAlign=middle;whiteSpace=wrap;rounded=0;" parent="1" vertex="1">
          <mxGeometry x="840" y="-1260" width="210" height="70" as="geometry" />
        </mxCell>
        <mxCell id="T7HniVcJv9EPs_VLHabT-32" value="Azienda" style="text;html=1;align=center;verticalAlign=middle;whiteSpace=wrap;rounded=0;" parent="1" vertex="1">
          <mxGeometry x="-355" y="1754" width="60" height="30" as="geometry" />
        </mxCell>
        <mxCell id="T7HniVcJv9EPs_VLHabT-82" value="" style="endArrow=diamondThin;endFill=1;endSize=24;html=1;rounded=0;exitX=1;exitY=0.5;exitDx=0;exitDy=0;entryX=-0.003;entryY=0.914;entryDx=0;entryDy=0;entryPerimeter=0;" parent="1" source="T7HniVcJv9EPs_VLHabT-40" target="aWdZE8WK8su21jjzheNT-31" edge="1">
          <mxGeometry width="160" relative="1" as="geometry">
            <mxPoint x="60" y="730" as="sourcePoint" />
            <mxPoint x="220" y="730" as="targetPoint" />
            <Array as="points">
              <mxPoint x="680" y="756" />
              <mxPoint x="680" y="-918" />
            </Array>
          </mxGeometry>
        </mxCell>
        <mxCell id="T7HniVcJv9EPs_VLHabT-88" value="" style="endArrow=diamondThin;endFill=1;endSize=24;html=1;rounded=0;exitX=1;exitY=0.5;exitDx=0;exitDy=0;entryX=0.008;entryY=0.164;entryDx=0;entryDy=0;entryPerimeter=0;" parent="1" source="T7HniVcJv9EPs_VLHabT-78" target="aWdZE8WK8su21jjzheNT-43" edge="1">
          <mxGeometry width="160" relative="1" as="geometry">
            <mxPoint x="-30" y="160" as="sourcePoint" />
            <mxPoint x="130" y="160" as="targetPoint" />
            <Array as="points">
              <mxPoint x="570" y="160" />
              <mxPoint x="570" y="-12" />
            </Array>
          </mxGeometry>
        </mxCell>
        <mxCell id="T7HniVcJv9EPs_VLHabT-89" value="" style="endArrow=diamondThin;endFill=1;endSize=24;html=1;rounded=0;exitX=1;exitY=0.5;exitDx=0;exitDy=0;entryX=-0.001;entryY=0.579;entryDx=0;entryDy=0;entryPerimeter=0;" parent="1" source="T7HniVcJv9EPs_VLHabT-78" target="aWdZE8WK8su21jjzheNT-31" edge="1">
          <mxGeometry width="160" relative="1" as="geometry">
            <mxPoint x="20" y="100" as="sourcePoint" />
            <mxPoint x="180" y="100" as="targetPoint" />
            <Array as="points">
              <mxPoint x="540" y="160" />
              <mxPoint x="540" y="-990" />
            </Array>
          </mxGeometry>
        </mxCell>
        <mxCell id="T7HniVcJv9EPs_VLHabT-95" value="" style="html=1;whiteSpace=wrap;" parent="1" vertex="1">
          <mxGeometry x="-420" y="-160" width="350" height="2510" as="geometry" />
        </mxCell>
        <mxCell id="xBhGKhaRLWDecF1HYy3T-21" value="" style="endArrow=diamondThin;endFill=1;endSize=24;html=1;rounded=0;exitX=1;exitY=0.5;exitDx=0;exitDy=0;entryX=0;entryY=0.5;entryDx=0;entryDy=0;" parent="1" source="xBhGKhaRLWDecF1HYy3T-20" target="aWdZE8WK8su21jjzheNT-20" edge="1">
          <mxGeometry width="160" relative="1" as="geometry">
            <mxPoint x="180" y="1140" as="sourcePoint" />
            <mxPoint x="340" y="1140" as="targetPoint" />
            <Array as="points">
              <mxPoint x="430" y="1210" />
              <mxPoint x="430" y="1170" />
            </Array>
          </mxGeometry>
        </mxCell>
        <mxCell id="xBhGKhaRLWDecF1HYy3T-22" value="" style="endArrow=diamondThin;endFill=1;endSize=24;html=1;rounded=0;exitX=1;exitY=0.5;exitDx=0;exitDy=0;entryX=0;entryY=0.5;entryDx=0;entryDy=0;" parent="1" source="xBhGKhaRLWDecF1HYy3T-2" target="aWdZE8WK8su21jjzheNT-17" edge="1">
          <mxGeometry width="160" relative="1" as="geometry">
            <mxPoint y="1120" as="sourcePoint" />
            <mxPoint x="160" y="1120" as="targetPoint" />
            <Array as="points">
              <mxPoint x="430" y="1139" />
              <mxPoint x="430" y="935" />
            </Array>
          </mxGeometry>
        </mxCell>
        <mxCell id="xBhGKhaRLWDecF1HYy3T-26" value="" style="endArrow=diamondThin;endFill=1;endSize=24;html=1;rounded=0;exitX=0.988;exitY=0.103;exitDx=0;exitDy=0;exitPerimeter=0;entryX=-0.007;entryY=0.322;entryDx=0;entryDy=0;entryPerimeter=0;" parent="1" source="xBhGKhaRLWDecF1HYy3T-7" target="aWdZE8WK8su21jjzheNT-27" edge="1">
          <mxGeometry width="160" relative="1" as="geometry">
            <mxPoint x="110" y="1310" as="sourcePoint" />
            <mxPoint x="270" y="1310" as="targetPoint" />
            <Array as="points">
              <mxPoint x="350" y="1282" />
              <mxPoint x="350" y="1395" />
            </Array>
          </mxGeometry>
        </mxCell>
        <mxCell id="xBhGKhaRLWDecF1HYy3T-28" value="" style="endArrow=diamondThin;endFill=1;endSize=24;html=1;rounded=0;entryX=-0.004;entryY=0.585;entryDx=0;entryDy=0;entryPerimeter=0;" parent="1" target="aWdZE8WK8su21jjzheNT-27" edge="1">
          <mxGeometry width="160" relative="1" as="geometry">
            <mxPoint x="-180" y="1447" as="sourcePoint" />
            <mxPoint x="380" y="1580" as="targetPoint" />
          </mxGeometry>
        </mxCell>
        <mxCell id="xBhGKhaRLWDecF1HYy3T-29" value="" style="endArrow=diamondThin;endFill=1;endSize=24;html=1;rounded=0;entryX=-0.006;entryY=0.04;entryDx=0;entryDy=0;entryPerimeter=0;exitX=1;exitY=0.5;exitDx=0;exitDy=0;" parent="1" source="xBhGKhaRLWDecF1HYy3T-10" target="aWdZE8WK8su21jjzheNT-20" edge="1">
          <mxGeometry width="160" relative="1" as="geometry">
            <mxPoint x="390" y="1540" as="sourcePoint" />
            <mxPoint x="550" y="1540" as="targetPoint" />
            <Array as="points">
              <mxPoint x="750" y="1446" />
              <mxPoint x="750" y="1142" />
            </Array>
          </mxGeometry>
        </mxCell>
        <mxCell id="xBhGKhaRLWDecF1HYy3T-30" value="" style="endArrow=diamondThin;endFill=1;endSize=24;html=1;rounded=0;exitX=0.991;exitY=-0.054;exitDx=0;exitDy=0;exitPerimeter=0;entryX=0.009;entryY=0.927;entryDx=0;entryDy=0;entryPerimeter=0;" parent="1" source="xBhGKhaRLWDecF1HYy3T-11" target="aWdZE8WK8su21jjzheNT-17" edge="1">
          <mxGeometry width="160" relative="1" as="geometry">
            <mxPoint x="10" y="1510" as="sourcePoint" />
            <mxPoint x="1010" y="935" as="targetPoint" />
            <Array as="points">
              <mxPoint x="310" y="1445" />
              <mxPoint x="310" y="973" />
            </Array>
          </mxGeometry>
        </mxCell>
        <mxCell id="xBhGKhaRLWDecF1HYy3T-31" value="" style="endArrow=diamondThin;endFill=1;endSize=24;html=1;rounded=0;exitX=1;exitY=0.5;exitDx=0;exitDy=0;entryX=-0.001;entryY=0.162;entryDx=0;entryDy=0;entryPerimeter=0;" parent="1" source="xBhGKhaRLWDecF1HYy3T-10" target="aWdZE8WK8su21jjzheNT-59" edge="1">
          <mxGeometry width="160" relative="1" as="geometry">
            <mxPoint x="-40" y="1520" as="sourcePoint" />
            <mxPoint x="140" y="1530" as="targetPoint" />
            <Array as="points">
              <mxPoint x="210" y="1446" />
              <mxPoint x="210" y="446" />
            </Array>
          </mxGeometry>
        </mxCell>
        <mxCell id="xBhGKhaRLWDecF1HYy3T-33" value="" style="endArrow=diamondThin;endFill=1;endSize=24;html=1;rounded=0;exitX=1;exitY=0.5;exitDx=0;exitDy=0;entryX=0.004;entryY=1;entryDx=0;entryDy=0;entryPerimeter=0;" parent="1" source="xBhGKhaRLWDecF1HYy3T-12" target="aWdZE8WK8su21jjzheNT-27" edge="1">
          <mxGeometry width="160" relative="1" as="geometry">
            <mxPoint x="260" y="1540" as="sourcePoint" />
            <mxPoint x="420" y="1540" as="targetPoint" />
          </mxGeometry>
        </mxCell>
        <mxCell id="xBhGKhaRLWDecF1HYy3T-35" value="" style="endArrow=diamondThin;endFill=1;endSize=24;html=1;rounded=0;exitX=0.993;exitY=0;exitDx=0;exitDy=0;exitPerimeter=0;entryX=0.001;entryY=0.137;entryDx=0;entryDy=0;entryPerimeter=0;" parent="1" source="xBhGKhaRLWDecF1HYy3T-15" target="aWdZE8WK8su21jjzheNT-29" edge="1">
          <mxGeometry width="160" relative="1" as="geometry">
            <mxPoint x="-20" y="1600" as="sourcePoint" />
            <mxPoint x="990" y="1600" as="targetPoint" />
          </mxGeometry>
        </mxCell>
        <mxCell id="xBhGKhaRLWDecF1HYy3T-1" value="getInfo.php" style="swimlane;fontStyle=0;childLayout=stackLayout;horizontal=1;startSize=26;fillColor=none;horizontalStack=0;resizeParent=1;resizeParentMax=0;resizeLast=0;collapsible=1;marginBottom=0;whiteSpace=wrap;html=1;" parent="1" vertex="1">
          <mxGeometry x="-320" y="1100" width="170" height="130" as="geometry" />
        </mxCell>
        <mxCell id="xBhGKhaRLWDecF1HYy3T-2" value="+ getInfoUtente()" style="text;strokeColor=none;fillColor=none;align=left;verticalAlign=top;spacingLeft=4;spacingRight=4;overflow=hidden;rotatable=0;points=[[0,0.5],[1,0.5]];portConstraint=eastwest;whiteSpace=wrap;html=1;" parent="xBhGKhaRLWDecF1HYy3T-1" vertex="1">
          <mxGeometry y="26" width="170" height="26" as="geometry" />
        </mxCell>
        <mxCell id="xBhGKhaRLWDecF1HYy3T-16" value="+ getInfoUtenteBySession()" style="text;strokeColor=none;fillColor=none;align=left;verticalAlign=top;spacingLeft=4;spacingRight=4;overflow=hidden;rotatable=0;points=[[0,0.5],[1,0.5]];portConstraint=eastwest;whiteSpace=wrap;html=1;" parent="xBhGKhaRLWDecF1HYy3T-1" vertex="1">
          <mxGeometry y="52" width="170" height="26" as="geometry" />
        </mxCell>
        <mxCell id="xBhGKhaRLWDecF1HYy3T-19" value="+ getInfoAziendaBySession()" style="text;strokeColor=none;fillColor=none;align=left;verticalAlign=top;spacingLeft=4;spacingRight=4;overflow=hidden;rotatable=0;points=[[0,0.5],[1,0.5]];portConstraint=eastwest;whiteSpace=wrap;html=1;" parent="xBhGKhaRLWDecF1HYy3T-1" vertex="1">
          <mxGeometry y="78" width="170" height="26" as="geometry" />
        </mxCell>
        <mxCell id="xBhGKhaRLWDecF1HYy3T-20" value="+ getInfoAzienda()" style="text;strokeColor=none;fillColor=none;align=left;verticalAlign=top;spacingLeft=4;spacingRight=4;overflow=hidden;rotatable=0;points=[[0,0.5],[1,0.5]];portConstraint=eastwest;whiteSpace=wrap;html=1;" parent="xBhGKhaRLWDecF1HYy3T-1" vertex="1">
          <mxGeometry y="104" width="170" height="26" as="geometry" />
        </mxCell>
        <mxCell id="xBhGKhaRLWDecF1HYy3T-6" value="login.php" style="swimlane;fontStyle=0;childLayout=stackLayout;horizontal=1;startSize=26;fillColor=none;horizontalStack=0;resizeParent=1;resizeParentMax=0;resizeLast=0;collapsible=1;marginBottom=0;whiteSpace=wrap;html=1;" parent="1" vertex="1">
          <mxGeometry x="-320" y="1260" width="140" height="52" as="geometry" />
        </mxCell>
        <mxCell id="xBhGKhaRLWDecF1HYy3T-7" value="+ login()" style="text;strokeColor=none;fillColor=none;align=left;verticalAlign=top;spacingLeft=4;spacingRight=4;overflow=hidden;rotatable=0;points=[[0,0.5],[1,0.5]];portConstraint=eastwest;whiteSpace=wrap;html=1;" parent="xBhGKhaRLWDecF1HYy3T-6" vertex="1">
          <mxGeometry y="26" width="140" height="26" as="geometry" />
        </mxCell>
        <mxCell id="xBhGKhaRLWDecF1HYy3T-8" value="logout.php" style="swimlane;fontStyle=0;childLayout=stackLayout;horizontal=1;startSize=26;fillColor=none;horizontalStack=0;resizeParent=1;resizeParentMax=0;resizeLast=0;collapsible=1;marginBottom=0;whiteSpace=wrap;html=1;" parent="1" vertex="1">
          <mxGeometry x="-320" y="1340" width="140" height="52" as="geometry" />
        </mxCell>
        <mxCell id="xBhGKhaRLWDecF1HYy3T-9" value="+ logout()" style="text;strokeColor=none;fillColor=none;align=left;verticalAlign=top;spacingLeft=4;spacingRight=4;overflow=hidden;rotatable=0;points=[[0,0.5],[1,0.5]];portConstraint=eastwest;whiteSpace=wrap;html=1;" parent="xBhGKhaRLWDecF1HYy3T-8" vertex="1">
          <mxGeometry y="26" width="140" height="26" as="geometry" />
        </mxCell>
        <mxCell id="xBhGKhaRLWDecF1HYy3T-10" value="register.php" style="swimlane;fontStyle=0;childLayout=stackLayout;horizontal=1;startSize=26;fillColor=none;horizontalStack=0;resizeParent=1;resizeParentMax=0;resizeLast=0;collapsible=1;marginBottom=0;whiteSpace=wrap;html=1;" parent="1" vertex="1">
          <mxGeometry x="-320" y="1420" width="140" height="52" as="geometry" />
        </mxCell>
        <mxCell id="xBhGKhaRLWDecF1HYy3T-11" value="+ register()" style="text;strokeColor=none;fillColor=none;align=left;verticalAlign=top;spacingLeft=4;spacingRight=4;overflow=hidden;rotatable=0;points=[[0,0.5],[1,0.5]];portConstraint=eastwest;whiteSpace=wrap;html=1;" parent="xBhGKhaRLWDecF1HYy3T-10" vertex="1">
          <mxGeometry y="26" width="140" height="26" as="geometry" />
        </mxCell>
        <mxCell id="xBhGKhaRLWDecF1HYy3T-12" value="setPassword.php" style="swimlane;fontStyle=0;childLayout=stackLayout;horizontal=1;startSize=26;fillColor=none;horizontalStack=0;resizeParent=1;resizeParentMax=0;resizeLast=0;collapsible=1;marginBottom=0;whiteSpace=wrap;html=1;" parent="1" vertex="1">
          <mxGeometry x="-320" y="1500" width="140" height="52" as="geometry" />
        </mxCell>
        <mxCell id="xBhGKhaRLWDecF1HYy3T-13" value="+ setPassword()" style="text;strokeColor=none;fillColor=none;align=left;verticalAlign=top;spacingLeft=4;spacingRight=4;overflow=hidden;rotatable=0;points=[[0,0.5],[1,0.5]];portConstraint=eastwest;whiteSpace=wrap;html=1;" parent="xBhGKhaRLWDecF1HYy3T-12" vertex="1">
          <mxGeometry y="26" width="140" height="26" as="geometry" />
        </mxCell>
        <mxCell id="xBhGKhaRLWDecF1HYy3T-14" value="updateProfilo.php" style="swimlane;fontStyle=0;childLayout=stackLayout;horizontal=1;startSize=26;fillColor=none;horizontalStack=0;resizeParent=1;resizeParentMax=0;resizeLast=0;collapsible=1;marginBottom=0;whiteSpace=wrap;html=1;" parent="1" vertex="1">
          <mxGeometry x="-320" y="1580" width="140" height="52" as="geometry" />
        </mxCell>
        <mxCell id="xBhGKhaRLWDecF1HYy3T-15" value="+ updateProfilo()" style="text;strokeColor=none;fillColor=none;align=left;verticalAlign=top;spacingLeft=4;spacingRight=4;overflow=hidden;rotatable=0;points=[[0,0.5],[1,0.5]];portConstraint=eastwest;whiteSpace=wrap;html=1;" parent="xBhGKhaRLWDecF1HYy3T-14" vertex="1">
          <mxGeometry y="26" width="140" height="26" as="geometry" />
        </mxCell>
        <mxCell id="xBhGKhaRLWDecF1HYy3T-24" value="" style="endArrow=diamondThin;endFill=1;endSize=24;html=1;rounded=0;exitX=1;exitY=0.5;exitDx=0;exitDy=0;entryX=0.004;entryY=0.123;entryDx=0;entryDy=0;entryPerimeter=0;" parent="1" source="xBhGKhaRLWDecF1HYy3T-20" target="aWdZE8WK8su21jjzheNT-27" edge="1">
          <mxGeometry width="160" relative="1" as="geometry">
            <mxPoint x="320" y="1240" as="sourcePoint" />
            <mxPoint x="480" y="1240" as="targetPoint" />
            <Array as="points">
              <mxPoint x="430" y="1210" />
              <mxPoint x="430" y="1359" />
            </Array>
          </mxGeometry>
        </mxCell>
        <mxCell id="xBhGKhaRLWDecF1HYy3T-25" value="" style="endArrow=diamondThin;endFill=1;endSize=24;html=1;rounded=0;exitX=1;exitY=0.5;exitDx=0;exitDy=0;entryX=-0.002;entryY=0.067;entryDx=0;entryDy=0;entryPerimeter=0;" parent="1" source="xBhGKhaRLWDecF1HYy3T-2" target="aWdZE8WK8su21jjzheNT-31" edge="1">
          <mxGeometry width="160" relative="1" as="geometry">
            <mxPoint x="10" y="1040" as="sourcePoint" />
            <mxPoint x="170" y="1040" as="targetPoint" />
            <Array as="points">
              <mxPoint x="410" y="1139" />
              <mxPoint x="410" y="-1100" />
            </Array>
          </mxGeometry>
        </mxCell>
        <mxCell id="xBhGKhaRLWDecF1HYy3T-27" value="" style="endArrow=diamondThin;endFill=1;endSize=24;html=1;rounded=0;entryX=-0.002;entryY=0.054;entryDx=0;entryDy=0;entryPerimeter=0;" parent="1" target="aWdZE8WK8su21jjzheNT-33" edge="1">
          <mxGeometry width="160" relative="1" as="geometry">
            <mxPoint x="-180" y="1290" as="sourcePoint" />
            <mxPoint x="20" y="1290" as="targetPoint" />
            <Array as="points">
              <mxPoint x="360" y="1280" />
              <mxPoint x="360" y="-868" />
            </Array>
          </mxGeometry>
        </mxCell>
        <mxCell id="xBhGKhaRLWDecF1HYy3T-32" value="" style="endArrow=diamondThin;endFill=1;endSize=24;html=1;rounded=0;exitX=1.007;exitY=-0.077;exitDx=0;exitDy=0;exitPerimeter=0;entryX=0.006;entryY=0.181;entryDx=0;entryDy=0;entryPerimeter=0;" parent="1" source="xBhGKhaRLWDecF1HYy3T-11" target="aWdZE8WK8su21jjzheNT-33" edge="1">
          <mxGeometry width="160" relative="1" as="geometry">
            <mxPoint x="180" y="1560" as="sourcePoint" />
            <mxPoint x="460" y="-122" as="targetPoint" />
            <Array as="points">
              <mxPoint x="210" y="1444" />
              <mxPoint x="210" y="-810" />
            </Array>
          </mxGeometry>
        </mxCell>
        <mxCell id="xBhGKhaRLWDecF1HYy3T-34" value="" style="endArrow=diamondThin;endFill=1;endSize=24;html=1;rounded=0;exitX=1;exitY=0.5;exitDx=0;exitDy=0;entryX=0.001;entryY=0.299;entryDx=0;entryDy=0;entryPerimeter=0;" parent="1" source="xBhGKhaRLWDecF1HYy3T-12" target="aWdZE8WK8su21jjzheNT-33" edge="1">
          <mxGeometry width="160" relative="1" as="geometry">
            <mxPoint x="-40" y="1570" as="sourcePoint" />
            <mxPoint x="120" y="1570" as="targetPoint" />
            <Array as="points">
              <mxPoint x="160" y="1526" />
              <mxPoint x="160" y="-760" />
            </Array>
          </mxGeometry>
        </mxCell>
        <mxCell id="xBhGKhaRLWDecF1HYy3T-36" value="" style="endArrow=diamondThin;endFill=1;endSize=24;html=1;rounded=0;exitX=1.007;exitY=-0.017;exitDx=0;exitDy=0;exitPerimeter=0;entryX=-0.007;entryY=0.42;entryDx=0;entryDy=0;entryPerimeter=0;" parent="1" source="xBhGKhaRLWDecF1HYy3T-15" target="aWdZE8WK8su21jjzheNT-33" edge="1">
          <mxGeometry width="160" relative="1" as="geometry">
            <mxPoint x="-140" y="1640" as="sourcePoint" />
            <mxPoint x="130" y="1630" as="targetPoint" />
            <Array as="points">
              <mxPoint x="90" y="1606" />
              <mxPoint x="90" y="-706" />
            </Array>
          </mxGeometry>
        </mxCell>
        <mxCell id="T7HniVcJv9EPs_VLHabT-30" value="" style="html=1;whiteSpace=wrap;" parent="1" vertex="1">
          <mxGeometry x="-355" y="1754" width="230" height="520" as="geometry" />
        </mxCell>
        <mxCell id="T7HniVcJv9EPs_VLHabT-16" value="eliminaOfferta.php&amp;nbsp;&amp;nbsp;" style="swimlane;fontStyle=0;childLayout=stackLayout;horizontal=1;startSize=26;fillColor=none;horizontalStack=0;resizeParent=1;resizeParentMax=0;resizeLast=0;collapsible=1;marginBottom=0;whiteSpace=wrap;html=1;" parent="1" vertex="1">
          <mxGeometry x="-325" y="1894" width="140" height="52" as="geometry" />
        </mxCell>
        <mxCell id="T7HniVcJv9EPs_VLHabT-17" value="+&amp;nbsp;eliminaOfferta()&amp;nbsp;" style="text;strokeColor=none;fillColor=none;align=left;verticalAlign=top;spacingLeft=4;spacingRight=4;overflow=hidden;rotatable=0;points=[[0,0.5],[1,0.5]];portConstraint=eastwest;whiteSpace=wrap;html=1;" parent="T7HniVcJv9EPs_VLHabT-16" vertex="1">
          <mxGeometry y="26" width="140" height="26" as="geometry" />
        </mxCell>
        <mxCell id="T7HniVcJv9EPs_VLHabT-20" value="getCandidatiOfferta.php&amp;nbsp;" style="swimlane;fontStyle=0;childLayout=stackLayout;horizontal=1;startSize=26;fillColor=none;horizontalStack=0;resizeParent=1;resizeParentMax=0;resizeLast=0;collapsible=1;marginBottom=0;whiteSpace=wrap;html=1;" parent="1" vertex="1">
          <mxGeometry x="-325" y="2004" width="170" height="52" as="geometry" />
        </mxCell>
        <mxCell id="T7HniVcJv9EPs_VLHabT-21" value="+getCandidatiOfferta()" style="text;strokeColor=none;fillColor=none;align=left;verticalAlign=top;spacingLeft=4;spacingRight=4;overflow=hidden;rotatable=0;points=[[0,0.5],[1,0.5]];portConstraint=eastwest;whiteSpace=wrap;html=1;" parent="T7HniVcJv9EPs_VLHabT-20" vertex="1">
          <mxGeometry y="26" width="170" height="26" as="geometry" />
        </mxCell>
        <mxCell id="T7HniVcJv9EPs_VLHabT-24" value="getOfferteAzienda.php&amp;nbsp;" style="swimlane;fontStyle=0;childLayout=stackLayout;horizontal=1;startSize=26;fillColor=none;horizontalStack=0;resizeParent=1;resizeParentMax=0;resizeLast=0;collapsible=1;marginBottom=0;whiteSpace=wrap;html=1;" parent="1" vertex="1">
          <mxGeometry x="-325" y="2094" width="160" height="52" as="geometry" />
        </mxCell>
        <mxCell id="T7HniVcJv9EPs_VLHabT-25" value="+ getOfferteAzienda.php()&amp;nbsp;" style="text;strokeColor=none;fillColor=none;align=left;verticalAlign=top;spacingLeft=4;spacingRight=4;overflow=hidden;rotatable=0;points=[[0,0.5],[1,0.5]];portConstraint=eastwest;whiteSpace=wrap;html=1;" parent="T7HniVcJv9EPs_VLHabT-24" vertex="1">
          <mxGeometry y="26" width="160" height="26" as="geometry" />
        </mxCell>
        <mxCell id="T7HniVcJv9EPs_VLHabT-26" value="manageCandidatura.php&amp;nbsp;" style="swimlane;fontStyle=0;childLayout=stackLayout;horizontal=1;startSize=26;fillColor=none;horizontalStack=0;resizeParent=1;resizeParentMax=0;resizeLast=0;collapsible=1;marginBottom=0;whiteSpace=wrap;html=1;" parent="1" vertex="1">
          <mxGeometry x="-325" y="1814" width="160" height="52" as="geometry" />
        </mxCell>
        <mxCell id="T7HniVcJv9EPs_VLHabT-27" value="+ manageCandidatura()" style="text;strokeColor=none;fillColor=none;align=left;verticalAlign=top;spacingLeft=4;spacingRight=4;overflow=hidden;rotatable=0;points=[[0,0.5],[1,0.5]];portConstraint=eastwest;whiteSpace=wrap;html=1;" parent="T7HniVcJv9EPs_VLHabT-26" vertex="1">
          <mxGeometry y="26" width="160" height="26" as="geometry" />
        </mxCell>
        <mxCell id="T7HniVcJv9EPs_VLHabT-28" value="pubblicaOfferta.php" style="swimlane;fontStyle=0;childLayout=stackLayout;horizontal=1;startSize=26;fillColor=none;horizontalStack=0;resizeParent=1;resizeParentMax=0;resizeLast=0;collapsible=1;marginBottom=0;whiteSpace=wrap;html=1;" parent="1" vertex="1">
          <mxGeometry x="-325" y="2174" width="140" height="52" as="geometry" />
        </mxCell>
        <mxCell id="T7HniVcJv9EPs_VLHabT-29" value="+ pubblicaOfferta()" style="text;strokeColor=none;fillColor=none;align=left;verticalAlign=top;spacingLeft=4;spacingRight=4;overflow=hidden;rotatable=0;points=[[0,0.5],[1,0.5]];portConstraint=eastwest;whiteSpace=wrap;html=1;" parent="T7HniVcJv9EPs_VLHabT-28" vertex="1">
          <mxGeometry y="26" width="140" height="26" as="geometry" />
        </mxCell>
        <mxCell id="T7HniVcJv9EPs_VLHabT-33" value="" style="endArrow=diamondThin;endFill=1;endSize=24;html=1;rounded=0;exitX=1;exitY=0.5;exitDx=0;exitDy=0;entryX=0;entryY=0.5;entryDx=0;entryDy=0;" parent="1" source="T7HniVcJv9EPs_VLHabT-16" edge="1">
          <mxGeometry width="160" relative="1" as="geometry">
            <mxPoint x="157.8" y="1281.5" as="sourcePoint" />
            <mxPoint x="987.8" y="2061.5" as="targetPoint" />
            <Array as="points">
              <mxPoint x="730" y="1910" />
              <mxPoint x="727.8" y="2061.5" />
            </Array>
          </mxGeometry>
        </mxCell>
        <mxCell id="T7HniVcJv9EPs_VLHabT-34" value="" style="endArrow=diamondThin;endFill=1;endSize=24;html=1;rounded=0;exitX=1.002;exitY=-0.09;exitDx=0;exitDy=0;exitPerimeter=0;entryX=0.001;entryY=0.288;entryDx=0;entryDy=0;entryPerimeter=0;" parent="1" source="T7HniVcJv9EPs_VLHabT-21" edge="1">
          <mxGeometry width="160" relative="1" as="geometry">
            <mxPoint x="347.8" y="1421.5" as="sourcePoint" />
            <mxPoint x="988.24" y="2091.852" as="targetPoint" />
            <Array as="points">
              <mxPoint x="708" y="2028" />
              <mxPoint x="707.8" y="2091.5" />
            </Array>
          </mxGeometry>
        </mxCell>
        <mxCell id="T7HniVcJv9EPs_VLHabT-36" value="" style="endArrow=diamondThin;endFill=1;endSize=24;html=1;rounded=0;entryX=-0.003;entryY=0.677;entryDx=0;entryDy=0;entryPerimeter=0;exitX=1;exitY=0.5;exitDx=0;exitDy=0;" parent="1" source="T7HniVcJv9EPs_VLHabT-24" edge="1">
          <mxGeometry width="160" relative="1" as="geometry">
            <mxPoint x="587.8" y="2171.5" as="sourcePoint" />
            <mxPoint x="986.4800000000002" y="2151.758" as="targetPoint" />
            <Array as="points">
              <mxPoint x="648" y="2110" />
              <mxPoint x="647.8" y="2151.5" />
            </Array>
          </mxGeometry>
        </mxCell>
        <mxCell id="T7HniVcJv9EPs_VLHabT-37" value="" style="endArrow=diamondThin;endFill=1;endSize=24;html=1;rounded=0;exitX=1;exitY=0.5;exitDx=0;exitDy=0;entryX=-0.007;entryY=0.903;entryDx=0;entryDy=0;entryPerimeter=0;" parent="1" source="T7HniVcJv9EPs_VLHabT-26" edge="1">
          <mxGeometry width="160" relative="1" as="geometry">
            <mxPoint x="357.8" y="1771.5" as="sourcePoint" />
            <mxPoint x="1015.0000000000007" y="88.50199999999995" as="targetPoint" />
            <Array as="points">
              <mxPoint x="778" y="1830" />
              <mxPoint x="777.8" y="88.5" />
            </Array>
          </mxGeometry>
        </mxCell>
        <mxCell id="T7HniVcJv9EPs_VLHabT-38" value="" style="endArrow=diamondThin;endFill=1;endSize=24;html=1;rounded=0;exitX=1;exitY=0.5;exitDx=0;exitDy=0;entryX=0.005;entryY=0.926;entryDx=0;entryDy=0;entryPerimeter=0;" parent="1" source="T7HniVcJv9EPs_VLHabT-28" edge="1">
          <mxGeometry width="160" relative="1" as="geometry">
            <mxPoint x="287.8" y="1781.5" as="sourcePoint" />
            <mxPoint x="990.0000000000007" y="2190.1040000000003" as="targetPoint" />
            <Array as="points">
              <mxPoint x="627.8" y="2191.5" />
            </Array>
          </mxGeometry>
        </mxCell>
        <mxCell id="T7HniVcJv9EPs_VLHabT-92" value="" style="html=1;whiteSpace=wrap;" parent="1" vertex="1">
          <mxGeometry x="-350" y="-40" width="230" height="970" as="geometry" />
        </mxCell>
        <mxCell id="T7HniVcJv9EPs_VLHabT-22" value="getOfferta.php" style="swimlane;fontStyle=0;childLayout=stackLayout;horizontal=1;startSize=26;fillColor=none;horizontalStack=0;resizeParent=1;resizeParentMax=0;resizeLast=0;collapsible=1;marginBottom=0;whiteSpace=wrap;html=1;" parent="1" vertex="1">
          <mxGeometry x="-310" y="810" width="140" height="52" as="geometry" />
        </mxCell>
        <mxCell id="T7HniVcJv9EPs_VLHabT-23" value="+&amp;nbsp;getOfferta.php()" style="text;strokeColor=none;fillColor=none;align=left;verticalAlign=top;spacingLeft=4;spacingRight=4;overflow=hidden;rotatable=0;points=[[0,0.5],[1,0.5]];portConstraint=eastwest;whiteSpace=wrap;html=1;" parent="T7HniVcJv9EPs_VLHabT-22" vertex="1">
          <mxGeometry y="26" width="140" height="26" as="geometry" />
        </mxCell>
        <mxCell id="T7HniVcJv9EPs_VLHabT-40" value="uploadFile.php" style="swimlane;fontStyle=0;childLayout=stackLayout;horizontal=1;startSize=26;fillColor=none;horizontalStack=0;resizeParent=1;resizeParentMax=0;resizeLast=0;collapsible=1;marginBottom=0;whiteSpace=wrap;html=1;" parent="1" vertex="1">
          <mxGeometry x="-310" y="730" width="140" height="52" as="geometry" />
        </mxCell>
        <mxCell id="T7HniVcJv9EPs_VLHabT-41" value="+&amp;nbsp;uploadFile()" style="text;strokeColor=none;fillColor=none;align=left;verticalAlign=top;spacingLeft=4;spacingRight=4;overflow=hidden;rotatable=0;points=[[0,0.5],[1,0.5]];portConstraint=eastwest;whiteSpace=wrap;html=1;" parent="T7HniVcJv9EPs_VLHabT-40" vertex="1">
          <mxGeometry y="26" width="140" height="26" as="geometry" />
        </mxCell>
        <mxCell id="T7HniVcJv9EPs_VLHabT-68" value="getOfferte.php" style="swimlane;fontStyle=0;childLayout=stackLayout;horizontal=1;startSize=26;fillColor=none;horizontalStack=0;resizeParent=1;resizeParentMax=0;resizeLast=0;collapsible=1;marginBottom=0;whiteSpace=wrap;html=1;" parent="1" vertex="1">
          <mxGeometry x="-310" y="620" width="140" height="52" as="geometry" />
        </mxCell>
        <mxCell id="T7HniVcJv9EPs_VLHabT-69" value="+&amp;nbsp;getOfferte()" style="text;strokeColor=none;fillColor=none;align=left;verticalAlign=top;spacingLeft=4;spacingRight=4;overflow=hidden;rotatable=0;points=[[0,0.5],[1,0.5]];portConstraint=eastwest;whiteSpace=wrap;html=1;" parent="T7HniVcJv9EPs_VLHabT-68" vertex="1">
          <mxGeometry y="26" width="140" height="26" as="geometry" />
        </mxCell>
        <mxCell id="T7HniVcJv9EPs_VLHabT-72" value="getCandidature.php" style="swimlane;fontStyle=0;childLayout=stackLayout;horizontal=1;startSize=26;fillColor=none;horizontalStack=0;resizeParent=1;resizeParentMax=0;resizeLast=0;collapsible=1;marginBottom=0;whiteSpace=wrap;html=1;" parent="1" vertex="1">
          <mxGeometry x="-310" y="520" width="140" height="52" as="geometry" />
        </mxCell>
        <mxCell id="T7HniVcJv9EPs_VLHabT-73" value="+ getCandidature()" style="text;strokeColor=none;fillColor=none;align=left;verticalAlign=top;spacingLeft=4;spacingRight=4;overflow=hidden;rotatable=0;points=[[0,0.5],[1,0.5]];portConstraint=eastwest;whiteSpace=wrap;html=1;" parent="T7HniVcJv9EPs_VLHabT-72" vertex="1">
          <mxGeometry y="26" width="140" height="26" as="geometry" />
        </mxCell>
        <UserObject label="deleteCandidatura.php" link="deleteCandidatura.php" id="T7HniVcJv9EPs_VLHabT-74">
          <mxCell style="swimlane;fontStyle=0;childLayout=stackLayout;horizontal=1;startSize=26;fillColor=none;horizontalStack=0;resizeParent=1;resizeParentMax=0;resizeLast=0;collapsible=1;marginBottom=0;whiteSpace=wrap;html=1;" parent="1" vertex="1">
            <mxGeometry x="-310" y="250" width="140" height="52" as="geometry" />
          </mxCell>
        </UserObject>
        <mxCell id="T7HniVcJv9EPs_VLHabT-75" value="+&amp;nbsp;deleteCandidatura()" style="text;strokeColor=none;fillColor=none;align=left;verticalAlign=top;spacingLeft=4;spacingRight=4;overflow=hidden;rotatable=0;points=[[0,0.5],[1,0.5]];portConstraint=eastwest;whiteSpace=wrap;html=1;" parent="T7HniVcJv9EPs_VLHabT-74" vertex="1">
          <mxGeometry y="26" width="140" height="26" as="geometry" />
        </mxCell>
        <mxCell id="T7HniVcJv9EPs_VLHabT-76" value="getCandidatura.php" style="swimlane;fontStyle=0;childLayout=stackLayout;horizontal=1;startSize=26;fillColor=none;horizontalStack=0;resizeParent=1;resizeParentMax=0;resizeLast=0;collapsible=1;marginBottom=0;whiteSpace=wrap;html=1;" parent="1" vertex="1">
          <mxGeometry x="-310" y="390" width="140" height="52" as="geometry" />
        </mxCell>
        <mxCell id="T7HniVcJv9EPs_VLHabT-77" value="+&amp;nbsp;getCandidatura()" style="text;strokeColor=none;fillColor=none;align=left;verticalAlign=top;spacingLeft=4;spacingRight=4;overflow=hidden;rotatable=0;points=[[0,0.5],[1,0.5]];portConstraint=eastwest;whiteSpace=wrap;html=1;" parent="T7HniVcJv9EPs_VLHabT-76" vertex="1">
          <mxGeometry y="26" width="140" height="26" as="geometry" />
        </mxCell>
        <mxCell id="T7HniVcJv9EPs_VLHabT-78" value="createCandidatura.php&amp;nbsp;" style="swimlane;fontStyle=0;childLayout=stackLayout;horizontal=1;startSize=26;fillColor=none;horizontalStack=0;resizeParent=1;resizeParentMax=0;resizeLast=0;collapsible=1;marginBottom=0;whiteSpace=wrap;html=1;" parent="1" vertex="1">
          <mxGeometry x="-310" y="140" width="140" height="52" as="geometry" />
        </mxCell>
        <mxCell id="T7HniVcJv9EPs_VLHabT-79" value="+&amp;nbsp;createCandidatura()" style="text;strokeColor=none;fillColor=none;align=left;verticalAlign=top;spacingLeft=4;spacingRight=4;overflow=hidden;rotatable=0;points=[[0,0.5],[1,0.5]];portConstraint=eastwest;whiteSpace=wrap;html=1;" parent="T7HniVcJv9EPs_VLHabT-78" vertex="1">
          <mxGeometry y="26" width="140" height="26" as="geometry" />
        </mxCell>
        <mxCell id="T7HniVcJv9EPs_VLHabT-80" value="appuntaOfferta.php&amp;nbsp;&amp;nbsp;" style="swimlane;fontStyle=0;childLayout=stackLayout;horizontal=1;startSize=26;fillColor=none;horizontalStack=0;resizeParent=1;resizeParentMax=0;resizeLast=0;collapsible=1;marginBottom=0;whiteSpace=wrap;html=1;" parent="1" vertex="1">
          <mxGeometry x="-310" y="40" width="140" height="52" as="geometry" />
        </mxCell>
        <mxCell id="T7HniVcJv9EPs_VLHabT-81" value="+ appuntaOfferta()" style="text;strokeColor=none;fillColor=none;align=left;verticalAlign=top;spacingLeft=4;spacingRight=4;overflow=hidden;rotatable=0;points=[[0,0.5],[1,0.5]];portConstraint=eastwest;whiteSpace=wrap;html=1;" parent="T7HniVcJv9EPs_VLHabT-80" vertex="1">
          <mxGeometry y="26" width="140" height="26" as="geometry" />
        </mxCell>
        <mxCell id="T7HniVcJv9EPs_VLHabT-35" value="" style="endArrow=diamondThin;endFill=1;endSize=24;html=1;rounded=0;exitX=0.979;exitY=-0.09;exitDx=0;exitDy=0;exitPerimeter=0;entryX=0;entryY=0.5;entryDx=0;entryDy=0;" parent="1" source="T7HniVcJv9EPs_VLHabT-23" target="aWdZE8WK8su21jjzheNT-35" edge="1">
          <mxGeometry width="160" relative="1" as="geometry">
            <mxPoint x="350" y="1560" as="sourcePoint" />
            <mxPoint x="510" y="1560" as="targetPoint" />
            <Array as="points">
              <mxPoint x="680" y="834" />
              <mxPoint x="680" y="2120" />
            </Array>
          </mxGeometry>
        </mxCell>
        <mxCell id="T7HniVcJv9EPs_VLHabT-83" value="" style="endArrow=diamondThin;endFill=1;endSize=24;html=1;rounded=0;exitX=0.999;exitY=-0.044;exitDx=0;exitDy=0;exitPerimeter=0;entryX=-0.012;entryY=0.125;entryDx=0;entryDy=0;entryPerimeter=0;" parent="1" source="T7HniVcJv9EPs_VLHabT-69" target="aWdZE8WK8su21jjzheNT-37" edge="1">
          <mxGeometry width="160" relative="1" as="geometry">
            <mxPoint x="50" y="620" as="sourcePoint" />
            <mxPoint x="540" y="645" as="targetPoint" />
            <Array as="points">
              <mxPoint x="610" y="645" />
              <mxPoint x="610" y="2250" />
            </Array>
          </mxGeometry>
        </mxCell>
        <mxCell id="T7HniVcJv9EPs_VLHabT-84" value="" style="endArrow=diamondThin;endFill=1;endSize=24;html=1;rounded=0;exitX=1;exitY=-0.154;exitDx=0;exitDy=0;exitPerimeter=0;entryX=0;entryY=0.752;entryDx=0;entryDy=0;entryPerimeter=0;" parent="1" source="T7HniVcJv9EPs_VLHabT-73" target="aWdZE8WK8su21jjzheNT-31" edge="1">
          <mxGeometry width="160" relative="1" as="geometry">
            <mxPoint x="80" y="490" as="sourcePoint" />
            <mxPoint x="1008" y="-1038" as="targetPoint" />
            <Array as="points">
              <mxPoint x="650" y="542" />
              <mxPoint x="650" y="-953" />
            </Array>
          </mxGeometry>
        </mxCell>
        <mxCell id="T7HniVcJv9EPs_VLHabT-85" value="" style="endArrow=diamondThin;endFill=1;endSize=24;html=1;rounded=0;exitX=0.988;exitY=-0.026;exitDx=0;exitDy=0;exitPerimeter=0;" parent="1" source="T7HniVcJv9EPs_VLHabT-77" edge="1">
          <mxGeometry width="160" relative="1" as="geometry">
            <mxPoint y="410" as="sourcePoint" />
            <mxPoint x="1020" y="50" as="targetPoint" />
            <Array as="points">
              <mxPoint x="620" y="415" />
              <mxPoint x="620" y="50" />
            </Array>
          </mxGeometry>
        </mxCell>
        <mxCell id="T7HniVcJv9EPs_VLHabT-86" value="" style="endArrow=diamondThin;endFill=1;endSize=24;html=1;rounded=0;exitX=1;exitY=0.5;exitDx=0;exitDy=0;entryX=0.004;entryY=0.381;entryDx=0;entryDy=0;entryPerimeter=0;" parent="1" source="T7HniVcJv9EPs_VLHabT-74" target="aWdZE8WK8su21jjzheNT-43" edge="1">
          <mxGeometry width="160" relative="1" as="geometry">
            <mxPoint x="-20" y="230" as="sourcePoint" />
            <mxPoint x="140" y="230" as="targetPoint" />
            <Array as="points">
              <mxPoint x="590" y="270" />
              <mxPoint x="590" y="17" />
            </Array>
          </mxGeometry>
        </mxCell>
        <mxCell id="T7HniVcJv9EPs_VLHabT-87" value="" style="endArrow=diamondThin;endFill=1;endSize=24;html=1;rounded=0;exitX=1;exitY=-0.026;exitDx=0;exitDy=0;exitPerimeter=0;" parent="1" source="T7HniVcJv9EPs_VLHabT-41" edge="1">
          <mxGeometry width="160" relative="1" as="geometry">
            <mxPoint x="20" y="780" as="sourcePoint" />
            <mxPoint x="1015" y="870" as="targetPoint" />
            <Array as="points">
              <mxPoint x="720" y="755" />
              <mxPoint x="720" y="870" />
            </Array>
          </mxGeometry>
        </mxCell>
        <mxCell id="T7HniVcJv9EPs_VLHabT-90" value="" style="endArrow=diamondThin;endFill=1;endSize=24;html=1;rounded=0;exitX=1;exitY=0.5;exitDx=0;exitDy=0;entryX=-0.006;entryY=0.073;entryDx=0;entryDy=0;entryPerimeter=0;" parent="1" source="T7HniVcJv9EPs_VLHabT-78" target="aWdZE8WK8su21jjzheNT-17" edge="1">
          <mxGeometry width="160" relative="1" as="geometry">
            <mxPoint x="90" y="110" as="sourcePoint" />
            <mxPoint x="250" y="110" as="targetPoint" />
            <Array as="points">
              <mxPoint x="500" y="160" />
              <mxPoint x="500" y="900" />
            </Array>
          </mxGeometry>
        </mxCell>
        <mxCell id="T7HniVcJv9EPs_VLHabT-91" value="" style="endArrow=diamondThin;endFill=1;endSize=24;html=1;rounded=0;exitX=0.979;exitY=-0.154;exitDx=0;exitDy=0;exitPerimeter=0;entryX=0.004;entryY=0.29;entryDx=0;entryDy=0;entryPerimeter=0;" parent="1" source="T7HniVcJv9EPs_VLHabT-81" target="aWdZE8WK8su21jjzheNT-31" edge="1">
          <mxGeometry width="160" relative="1" as="geometry">
            <mxPoint x="90" y="20" as="sourcePoint" />
            <mxPoint x="250" y="20" as="targetPoint" />
            <Array as="points">
              <mxPoint x="520" y="62" />
              <mxPoint x="520" y="-1050" />
            </Array>
          </mxGeometry>
        </mxCell>
        <mxCell id="T7HniVcJv9EPs_VLHabT-94" value="Utente" style="text;align=center;fontStyle=1;verticalAlign=middle;spacingLeft=3;spacingRight=3;strokeColor=none;rotatable=0;points=[[0,0.5],[1,0.5]];portConstraint=eastwest;html=1;" parent="1" vertex="1">
          <mxGeometry x="-350" y="-40" width="80" height="26" as="geometry" />
        </mxCell>
        <mxCell id="xBhGKhaRLWDecF1HYy3T-42" value="&lt;span style=&quot;font-size: 43px;&quot;&gt;Controller&lt;/span&gt;" style="text;html=1;align=center;verticalAlign=middle;whiteSpace=wrap;rounded=0;" parent="1" vertex="1">
          <mxGeometry x="-420" y="-160" width="210" height="70" as="geometry" />
        </mxCell>
        <mxCell id="xBhGKhaRLWDecF1HYy3T-43" value="Aziende" style="text;align=center;fontStyle=1;verticalAlign=middle;spacingLeft=3;spacingRight=3;strokeColor=none;rotatable=0;points=[[0,0.5],[1,0.5]];portConstraint=eastwest;html=1;" parent="1" vertex="1">
          <mxGeometry x="-355" y="1756" width="80" height="26" as="geometry" />
        </mxCell>
        <mxCell id="xBhGKhaRLWDecF1HYy3T-44" value="" style="html=1;whiteSpace=wrap;" parent="1" vertex="1">
          <mxGeometry x="-1420" y="-160" width="380" height="1390" as="geometry" />
        </mxCell>
        <mxCell id="IQb-DDMbnGp3myvqYDva-3" value="" style="html=1;whiteSpace=wrap;" vertex="1" parent="1">
          <mxGeometry x="-1335" y="520" width="230" height="680" as="geometry" />
        </mxCell>
        <mxCell id="IQb-DDMbnGp3myvqYDva-4" value="" style="html=1;whiteSpace=wrap;" vertex="1" parent="1">
          <mxGeometry x="-1335" y="-70" width="230" height="550" as="geometry" />
        </mxCell>
        <mxCell id="IQb-DDMbnGp3myvqYDva-5" value="Utente" style="text;align=center;fontStyle=1;verticalAlign=middle;spacingLeft=3;spacingRight=3;strokeColor=none;rotatable=0;points=[[0,0.5],[1,0.5]];portConstraint=eastwest;html=1;" vertex="1" parent="1">
          <mxGeometry x="-1335" y="-70" width="80" height="26" as="geometry" />
        </mxCell>
        <mxCell id="IQb-DDMbnGp3myvqYDva-6" value="Aziende" style="text;align=center;fontStyle=1;verticalAlign=middle;spacingLeft=3;spacingRight=3;strokeColor=none;rotatable=0;points=[[0,0.5],[1,0.5]];portConstraint=eastwest;html=1;" vertex="1" parent="1">
          <mxGeometry x="-1335" y="520" width="80" height="26" as="geometry" />
        </mxCell>
        <mxCell id="IQb-DDMbnGp3myvqYDva-7" value="login.html" style="rounded=0;whiteSpace=wrap;html=1;" vertex="1" parent="1">
          <mxGeometry x="-1295" width="155" height="60" as="geometry" />
        </mxCell>
        <mxCell id="IQb-DDMbnGp3myvqYDva-8" value="offerteLavoro.php" style="rounded=0;whiteSpace=wrap;html=1;" vertex="1" parent="1">
          <mxGeometry x="-1295" y="92" width="150" height="60" as="geometry" />
        </mxCell>
        <mxCell id="IQb-DDMbnGp3myvqYDva-9" value="paginaCandidature.php" style="rounded=0;whiteSpace=wrap;html=1;" vertex="1" parent="1">
          <mxGeometry x="-1295" y="190" width="150" height="60" as="geometry" />
        </mxCell>
        <mxCell id="IQb-DDMbnGp3myvqYDva-10" value="paginaProfilo.php" style="rounded=0;whiteSpace=wrap;html=1;" vertex="1" parent="1">
          <mxGeometry x="-1295" y="280" width="150" height="60" as="geometry" />
        </mxCell>
        <mxCell id="IQb-DDMbnGp3myvqYDva-11" value="registrazione.html" style="rounded=0;whiteSpace=wrap;html=1;" vertex="1" parent="1">
          <mxGeometry x="-1295" y="370" width="150" height="60" as="geometry" />
        </mxCell>
        <mxCell id="IQb-DDMbnGp3myvqYDva-12" value="login.html" style="rounded=0;whiteSpace=wrap;html=1;" vertex="1" parent="1">
          <mxGeometry x="-1280" y="565" width="120" height="60" as="geometry" />
        </mxCell>
        <mxCell id="IQb-DDMbnGp3myvqYDva-13" value="registrazione.html" style="rounded=0;whiteSpace=wrap;html=1;" vertex="1" parent="1">
          <mxGeometry x="-1295" y="920" width="150" height="60" as="geometry" />
        </mxCell>
        <mxCell id="IQb-DDMbnGp3myvqYDva-14" value="modificaOfferteDiLavoro.php" style="rounded=0;whiteSpace=wrap;html=1;" vertex="1" parent="1">
          <mxGeometry x="-1305.5" y="650" width="177" height="60" as="geometry" />
        </mxCell>
        <mxCell id="IQb-DDMbnGp3myvqYDva-15" value="modificaProfilo.php" style="rounded=0;whiteSpace=wrap;html=1;" vertex="1" parent="1">
          <mxGeometry x="-1293.5" y="739" width="147" height="60" as="geometry" />
        </mxCell>
        <mxCell id="IQb-DDMbnGp3myvqYDva-16" value="nuovaOffertaLavoro.php" style="rounded=0;whiteSpace=wrap;html=1;" vertex="1" parent="1">
          <mxGeometry x="-1290.5" y="836" width="147" height="60" as="geometry" />
        </mxCell>
        <mxCell id="IQb-DDMbnGp3myvqYDva-17" value="paginaProfilo.php" style="rounded=0;whiteSpace=wrap;html=1;" vertex="1" parent="1">
          <mxGeometry x="-1295" y="1020" width="150" height="60" as="geometry" />
        </mxCell>
        <mxCell id="IQb-DDMbnGp3myvqYDva-18" value="paginaOfferte.php" style="rounded=0;whiteSpace=wrap;html=1;" vertex="1" parent="1">
          <mxGeometry x="-1295" y="1110" width="150" height="60" as="geometry" />
        </mxCell>
        <mxCell id="IQb-DDMbnGp3myvqYDva-19" value="" style="endArrow=diamondThin;endFill=1;endSize=24;html=1;rounded=0;exitX=1;exitY=0.5;exitDx=0;exitDy=0;entryX=0;entryY=0.5;entryDx=0;entryDy=0;" edge="1" parent="1" source="IQb-DDMbnGp3myvqYDva-7" target="xBhGKhaRLWDecF1HYy3T-7">
          <mxGeometry width="160" relative="1" as="geometry">
            <mxPoint x="-790" y="590" as="sourcePoint" />
            <mxPoint x="-630" y="590" as="targetPoint" />
            <Array as="points">
              <mxPoint x="-480" y="30" />
              <mxPoint x="-480" y="1299" />
            </Array>
          </mxGeometry>
        </mxCell>
        <mxCell id="IQb-DDMbnGp3myvqYDva-20" value="" style="endArrow=diamondThin;endFill=1;endSize=24;html=1;rounded=0;exitX=1;exitY=0.5;exitDx=0;exitDy=0;entryX=0;entryY=0.5;entryDx=0;entryDy=0;" edge="1" parent="1" source="IQb-DDMbnGp3myvqYDva-12" target="xBhGKhaRLWDecF1HYy3T-7">
          <mxGeometry width="160" relative="1" as="geometry">
            <mxPoint x="-850" y="610" as="sourcePoint" />
            <mxPoint x="-690" y="610" as="targetPoint" />
            <Array as="points">
              <mxPoint x="-480" y="595" />
              <mxPoint x="-480" y="1299" />
            </Array>
          </mxGeometry>
        </mxCell>
        <mxCell id="IQb-DDMbnGp3myvqYDva-21" value="" style="endArrow=diamondThin;endFill=1;endSize=24;html=1;rounded=0;exitX=1;exitY=0.5;exitDx=0;exitDy=0;entryX=0;entryY=0.5;entryDx=0;entryDy=0;" edge="1" parent="1" source="IQb-DDMbnGp3myvqYDva-13" target="xBhGKhaRLWDecF1HYy3T-11">
          <mxGeometry width="160" relative="1" as="geometry">
            <mxPoint x="-750" y="1180" as="sourcePoint" />
            <mxPoint x="-590" y="1180" as="targetPoint" />
            <Array as="points">
              <mxPoint x="-520" y="950" />
              <mxPoint x="-520" y="1459" />
            </Array>
          </mxGeometry>
        </mxCell>
        <mxCell id="IQb-DDMbnGp3myvqYDva-22" value="" style="endArrow=diamondThin;endFill=1;endSize=24;html=1;rounded=0;exitX=1;exitY=0.5;exitDx=0;exitDy=0;entryX=0;entryY=0.5;entryDx=0;entryDy=0;" edge="1" parent="1" source="IQb-DDMbnGp3myvqYDva-11" target="xBhGKhaRLWDecF1HYy3T-11">
          <mxGeometry width="160" relative="1" as="geometry">
            <mxPoint x="-860" y="380" as="sourcePoint" />
            <mxPoint x="-700" y="380" as="targetPoint" />
            <Array as="points">
              <mxPoint x="-520" y="400" />
              <mxPoint x="-520" y="1459" />
            </Array>
          </mxGeometry>
        </mxCell>
        <mxCell id="IQb-DDMbnGp3myvqYDva-23" value="" style="endArrow=diamondThin;endFill=1;endSize=24;html=1;rounded=0;exitX=1;exitY=0.5;exitDx=0;exitDy=0;entryX=0;entryY=0.5;entryDx=0;entryDy=0;" edge="1" parent="1" source="IQb-DDMbnGp3myvqYDva-8" target="T7HniVcJv9EPs_VLHabT-23">
          <mxGeometry width="160" relative="1" as="geometry">
            <mxPoint x="-800" y="160" as="sourcePoint" />
            <mxPoint x="-640" y="160" as="targetPoint" />
            <Array as="points">
              <mxPoint x="-540" y="122" />
              <mxPoint x="-540" y="849" />
            </Array>
          </mxGeometry>
        </mxCell>
        <mxCell id="IQb-DDMbnGp3myvqYDva-24" value="" style="endArrow=diamondThin;endFill=1;endSize=24;html=1;rounded=0;exitX=1;exitY=0.5;exitDx=0;exitDy=0;entryX=0;entryY=0.5;entryDx=0;entryDy=0;" edge="1" parent="1" source="IQb-DDMbnGp3myvqYDva-8" target="T7HniVcJv9EPs_VLHabT-78">
          <mxGeometry width="160" relative="1" as="geometry">
            <mxPoint x="-810" y="170" as="sourcePoint" />
            <mxPoint x="-650" y="170" as="targetPoint" />
            <Array as="points">
              <mxPoint x="-540" y="122" />
              <mxPoint x="-540" y="166" />
            </Array>
          </mxGeometry>
        </mxCell>
        <mxCell id="IQb-DDMbnGp3myvqYDva-25" value="" style="endArrow=diamondThin;endFill=1;endSize=24;html=1;rounded=0;exitX=1;exitY=0.5;exitDx=0;exitDy=0;entryX=0;entryY=0.5;entryDx=0;entryDy=0;" edge="1" parent="1" source="IQb-DDMbnGp3myvqYDva-8" target="xBhGKhaRLWDecF1HYy3T-2">
          <mxGeometry width="160" relative="1" as="geometry">
            <mxPoint x="-740" y="220" as="sourcePoint" />
            <mxPoint x="-580" y="220" as="targetPoint" />
            <Array as="points">
              <mxPoint x="-540" y="122" />
              <mxPoint x="-540" y="1139" />
            </Array>
          </mxGeometry>
        </mxCell>
        <mxCell id="IQb-DDMbnGp3myvqYDva-26" value="" style="endArrow=diamondThin;endFill=1;endSize=24;html=1;rounded=0;exitX=1;exitY=0.5;exitDx=0;exitDy=0;entryX=-0.01;entryY=0.066;entryDx=0;entryDy=0;entryPerimeter=0;" edge="1" parent="1" source="IQb-DDMbnGp3myvqYDva-9" target="T7HniVcJv9EPs_VLHabT-73">
          <mxGeometry width="160" relative="1" as="geometry">
            <mxPoint x="-840" y="220" as="sourcePoint" />
            <mxPoint x="-680" y="220" as="targetPoint" />
            <Array as="points">
              <mxPoint x="-570" y="220" />
              <mxPoint x="-570" y="548" />
            </Array>
          </mxGeometry>
        </mxCell>
        <mxCell id="IQb-DDMbnGp3myvqYDva-27" value="" style="endArrow=diamondThin;endFill=1;endSize=24;html=1;rounded=0;exitX=1;exitY=0.5;exitDx=0;exitDy=0;entryX=0;entryY=0.5;entryDx=0;entryDy=0;" edge="1" parent="1" source="IQb-DDMbnGp3myvqYDva-9" target="T7HniVcJv9EPs_VLHabT-74">
          <mxGeometry width="160" relative="1" as="geometry">
            <mxPoint x="-870" y="250" as="sourcePoint" />
            <mxPoint x="-650" y="300" as="targetPoint" />
            <Array as="points">
              <mxPoint x="-570" y="220" />
              <mxPoint x="-570" y="276" />
            </Array>
          </mxGeometry>
        </mxCell>
        <mxCell id="IQb-DDMbnGp3myvqYDva-28" value="" style="endArrow=diamondThin;endFill=1;endSize=24;html=1;rounded=0;exitX=1;exitY=0.5;exitDx=0;exitDy=0;entryX=-0.01;entryY=0.011;entryDx=0;entryDy=0;entryPerimeter=0;" edge="1" parent="1" source="IQb-DDMbnGp3myvqYDva-10" target="T7HniVcJv9EPs_VLHabT-41">
          <mxGeometry width="160" relative="1" as="geometry">
            <mxPoint x="-900" y="280" as="sourcePoint" />
            <mxPoint x="-740" y="280" as="targetPoint" />
            <Array as="points">
              <mxPoint x="-600" y="310" />
              <mxPoint x="-600" y="756" />
            </Array>
          </mxGeometry>
        </mxCell>
        <mxCell id="IQb-DDMbnGp3myvqYDva-29" value="" style="endArrow=diamondThin;endFill=1;endSize=24;html=1;rounded=0;exitX=1;exitY=0.5;exitDx=0;exitDy=0;entryX=0;entryY=0.5;entryDx=0;entryDy=0;" edge="1" parent="1" source="IQb-DDMbnGp3myvqYDva-10" target="xBhGKhaRLWDecF1HYy3T-16">
          <mxGeometry width="160" relative="1" as="geometry">
            <mxPoint x="-910" y="340" as="sourcePoint" />
            <mxPoint x="-750" y="340" as="targetPoint" />
            <Array as="points">
              <mxPoint x="-600" y="310" />
              <mxPoint x="-600" y="1165" />
            </Array>
          </mxGeometry>
        </mxCell>
        <mxCell id="IQb-DDMbnGp3myvqYDva-30" value="" style="endArrow=diamondThin;endFill=1;endSize=24;html=1;rounded=0;exitX=1;exitY=0.5;exitDx=0;exitDy=0;entryX=0;entryY=0.5;entryDx=0;entryDy=0;" edge="1" parent="1" source="IQb-DDMbnGp3myvqYDva-16" target="T7HniVcJv9EPs_VLHabT-28">
          <mxGeometry width="160" relative="1" as="geometry">
            <mxPoint x="-900" y="830" as="sourcePoint" />
            <mxPoint x="-740" y="830" as="targetPoint" />
            <Array as="points">
              <mxPoint x="-640" y="866" />
              <mxPoint x="-640" y="2200" />
            </Array>
          </mxGeometry>
        </mxCell>
        <mxCell id="IQb-DDMbnGp3myvqYDva-31" value="" style="endArrow=diamondThin;endFill=1;endSize=24;html=1;rounded=0;exitX=1;exitY=0.5;exitDx=0;exitDy=0;entryX=0;entryY=0.5;entryDx=0;entryDy=0;" edge="1" parent="1" source="IQb-DDMbnGp3myvqYDva-17" target="xBhGKhaRLWDecF1HYy3T-19">
          <mxGeometry width="160" relative="1" as="geometry">
            <mxPoint x="-830" y="1020" as="sourcePoint" />
            <mxPoint x="-670" y="1020" as="targetPoint" />
            <Array as="points">
              <mxPoint x="-720" y="1050" />
              <mxPoint x="-720" y="1190" />
            </Array>
          </mxGeometry>
        </mxCell>
        <mxCell id="IQb-DDMbnGp3myvqYDva-32" value="" style="endArrow=diamondThin;endFill=1;endSize=24;html=1;rounded=0;exitX=1;exitY=0.5;exitDx=0;exitDy=0;entryX=0;entryY=0.5;entryDx=0;entryDy=0;" edge="1" parent="1" source="IQb-DDMbnGp3myvqYDva-17" target="xBhGKhaRLWDecF1HYy3T-9">
          <mxGeometry width="160" relative="1" as="geometry">
            <mxPoint x="-890" y="1140" as="sourcePoint" />
            <mxPoint x="-730" y="1140" as="targetPoint" />
            <Array as="points">
              <mxPoint x="-720" y="1050" />
              <mxPoint x="-720" y="1379" />
            </Array>
          </mxGeometry>
        </mxCell>
        <mxCell id="IQb-DDMbnGp3myvqYDva-33" value="" style="endArrow=diamondThin;endFill=1;endSize=24;html=1;rounded=0;exitX=1;exitY=0.5;exitDx=0;exitDy=0;entryX=0;entryY=0.25;entryDx=0;entryDy=0;" edge="1" parent="1" source="IQb-DDMbnGp3myvqYDva-10" target="xBhGKhaRLWDecF1HYy3T-8">
          <mxGeometry width="160" relative="1" as="geometry">
            <mxPoint x="-880" y="360" as="sourcePoint" />
            <mxPoint x="-720" y="360" as="targetPoint" />
            <Array as="points">
              <mxPoint x="-600" y="310" />
              <mxPoint x="-600" y="1353" />
            </Array>
          </mxGeometry>
        </mxCell>
        <mxCell id="IQb-DDMbnGp3myvqYDva-34" value="" style="endArrow=diamondThin;endFill=1;endSize=24;html=1;rounded=0;exitX=1;exitY=0.5;exitDx=0;exitDy=0;entryX=-0.022;entryY=0.132;entryDx=0;entryDy=0;entryPerimeter=0;" edge="1" parent="1" source="IQb-DDMbnGp3myvqYDva-18" target="T7HniVcJv9EPs_VLHabT-25">
          <mxGeometry width="160" relative="1" as="geometry">
            <mxPoint x="-830" y="1150" as="sourcePoint" />
            <mxPoint x="-670" y="1150" as="targetPoint" />
            <Array as="points">
              <mxPoint x="-740" y="1140" />
              <mxPoint x="-740" y="2120" />
            </Array>
          </mxGeometry>
        </mxCell>
      </root>
    </mxGraphModel>
  </diagram>
</mxfile>
